<?xml version="1.0" encoding="utf-8"?>
<!-- Generator: Adobe Illustrator 16.2.1, SVG Export Plug-In . SVG Version: 6.00 Build 0)  -->
<!DOCTYPE svg PUBLIC "-//W3C//DTD SVG 1.1//EN" "http://www.w3.org/Graphics/SVG/1.1/DTD/svg11.dtd">
<svg version="1.1" id="Layer_1" xmlns="http://www.w3.org/2000/svg" xmlns:xlink="http://www.w3.org/1999/xlink" x="0px" y="0px"
	 width="512px" height="512px" viewBox="0 0 512 512" enable-background="new 0 0 512 512" xml:space="preserve">
<g id="Layer_2" display="none">
	<rect x="1" y="-0.5" display="inline" fill="#DBDBDB" width="511" height="512.5"/>
</g>
<g id="Layer_3">
	
		<image overflow="visible" opacity="0.75" width="527" height="527" xlink:href="C146F9BAFE84F7EE.png"  transform="matrix(1 0 0 1 -7.5 -7.5)">
	</image>
	<g>
		<g>
			<circle fill="#FFFFFF" cx="256" cy="256" r="217.907"/>
		</g>
	</g>
</g>
<g id="Layer_1_1_">
	<path id="video-play-3-icon" fill="#5A7D1F" d="M256,92.481c44.433,0,86.18,17.068,117.553,48.064
		C404.794,171.411,422,212.413,422,255.999s-17.206,84.588-48.448,115.455c-31.372,30.993-73.12,48.063-117.552,48.063
		c-44.432,0-86.179-17.07-117.552-48.063C107.206,340.587,90,299.585,90,255.999s17.206-84.588,48.448-115.453
		C169.821,109.55,211.568,92.481,256,92.481 M256,52.481c-113.771,0-206,91.117-206,203.518c0,112.397,92.229,203.52,206,203.52
		c113.772,0,206-91.12,206-203.52C462,143.599,369.772,52.481,256,52.481L256,52.481z M206.544,357.161V159.833l160.919,98.666
		L206.544,357.161z"/>
</g>
</svg>
