<?xml version="1.0" encoding="utf-8"?>
<!-- Generator: Adobe Illustrator 16.2.1, SVG Export Plug-In . SVG Version: 6.00 Build 0)  -->
<!DOCTYPE svg PUBLIC "-//W3C//DTD SVG 1.1//EN" "http://www.w3.org/Graphics/SVG/1.1/DTD/svg11.dtd">
<svg version="1.1" id="Layer_1" xmlns="http://www.w3.org/2000/svg" xmlns:xlink="http://www.w3.org/1999/xlink" x="0px" y="0px"
	 width="511px" height="1364.5px" viewBox="0 0 511 1364.5" enable-background="new 0 0 511 1364.5" xml:space="preserve">
<g id="Layer_2" display="none">
	<rect x="1" y="-0.5" display="inline" fill="#DBDBDB" width="511" height="512.5"/>
</g>
<g id="x-mark-4-icon">
	<g opacity="0.4">
		<path d="M462,1145c0,113.771-92.229,206-206,206c-113.771,0-206-92.229-206-206s92.229-206,206-206
			C369.771,939,462,1031.229,462,1145z M422,1145c0-91.755-74.258-166-166-166c-91.755,0-166,74.259-166,166
			c0,91.755,74.258,166,166,166C347.755,1311,422,1236.741,422,1145z M325.329,1251.49l-67.327-67.324l-67.329,67.332
			l-36.164-36.186l67.314-67.322l-67.321-67.317l36.186-36.164l67.31,67.302l67.3-67.31l36.193,36.17l-67.312,67.315l67.32,67.31
			L325.329,1251.49z"/>
	</g>
	<g>
		<path fill="#FFFFFF" d="M462,1148c0,113.771-92.229,206-206,206c-113.771,0-206-92.229-206-206s92.229-206,206-206
			C369.771,942,462,1034.229,462,1148z M422,1148c0-91.755-74.258-166-166-166c-91.755,0-166,74.259-166,166
			c0,91.755,74.258,166,166,166C347.755,1314,422,1239.741,422,1148z M325.329,1254.49l-67.327-67.324l-67.329,67.332
			l-36.164-36.186l67.314-67.322l-67.321-67.317l36.186-36.164l67.31,67.302l67.3-67.31l36.193,36.17l-67.312,67.315l67.32,67.31
			L325.329,1254.49z"/>
	</g>
</g>
<g>
	<g opacity="0.4">
		<rect x="50" y="97.75" width="412" height="87"/>
		<rect x="50" y="207.75" width="412" height="87"/>
		<rect x="50" y="317.75" width="412" height="87"/>
	</g>
	<g>
		<g>
			<rect x="50" y="101.75" fill="#FFFFFF" width="412" height="87"/>
			<rect x="50" y="211.75" fill="#FFFFFF" width="412" height="87"/>
			<rect x="50" y="321.75" fill="#FFFFFF" width="412" height="87"/>
		</g>
	</g>
</g>
</svg>
