<?xml version="1.0" encoding="utf-8"?>
<!-- Generator: Adobe Illustrator 16.2.1, SVG Export Plug-In . SVG Version: 6.00 Build 0)  -->
<!DOCTYPE svg PUBLIC "-//W3C//DTD SVG 1.1//EN" "http://www.w3.org/Graphics/SVG/1.1/DTD/svg11.dtd">
<svg version="1.1" xmlns="http://www.w3.org/2000/svg" xmlns:xlink="http://www.w3.org/1999/xlink" x="0px" y="0px"
	 width="69.802px" height="2966.997px" viewBox="0 0 69.802 2966.997" enable-background="new 0 0 69.802 2966.997"
	 xml:space="preserve">
<g id="Lag_1">
</g>
<g id="Lag_1_kopi">
	<g>
		<g>
			<g>
				<linearGradient id="SVGID_1_" gradientUnits="userSpaceOnUse" x1="2.4883" y1="33.6562" x2="69.8018" y2="33.6562">
					<stop  offset="0.0245" style="stop-color:#ABCF3C"/>
					<stop  offset="1" style="stop-color:#246533"/>
				</linearGradient>
				<path fill="url(#SVGID_1_)" d="M15.577,0h41.136c7.251,0,13.089,5.679,13.089,12.734v41.844c0,7.055-5.838,12.734-13.089,12.734
					H15.577c-7.251,0-13.089-5.679-13.089-12.734V12.734C2.488,5.679,8.326,0,15.577,0z"/>
				<linearGradient id="SVGID_2_" gradientUnits="userSpaceOnUse" x1="64.6064" y1="61.4312" x2="6.1702" y2="4.2807">
					<stop  offset="0.0245" style="stop-color:#D3E7BC"/>
					<stop  offset="1" style="stop-color:#002206"/>
				</linearGradient>
				<path fill="url(#SVGID_2_)" d="M17.637,3.613h37.018c6.525,0,11.778,5.06,11.778,11.345v37.276
					c0,6.285-5.253,11.345-11.778,11.345H17.637c-6.527,0-11.78-5.06-11.78-11.345V14.958C5.857,8.673,11.11,3.613,17.637,3.613z"/>
				
					<linearGradient id="SVGID_3_" gradientUnits="userSpaceOnUse" x1="-636.1914" y1="1756.6699" x2="-525.8593" y2="1627.1058" gradientTransform="matrix(0.3932 0 0 -0.3825 264.5781 680.7139)">
					<stop  offset="0.0245" style="stop-color:#ABCF3C"/>
					<stop  offset="1" style="stop-color:#246533"/>
				</linearGradient>
				<path fill="url(#SVGID_3_)" d="M18.635,4.942h35.021c6.174,0,11.144,4.835,11.144,10.841v35.624
					c0,6.007-4.97,10.842-11.144,10.842H18.635c-6.173,0-11.143-4.835-11.143-10.842V15.784C7.492,9.778,12.462,4.942,18.635,4.942z
					"/>
				
					<linearGradient id="SVGID_4_" gradientUnits="userSpaceOnUse" x1="-711.9829" y1="3310.8857" x2="-601.6519" y2="3181.3228" gradientTransform="matrix(0.3617 0 0 -0.1603 272.2862 540.0293)">
					<stop  offset="0.0429" style="stop-color:#B3D898"/>
					<stop  offset="1" style="stop-color:#66BD5D"/>
				</linearGradient>
				<path opacity="0.8" fill="url(#SVGID_4_)" d="M20.035,7.171h32.222c5.68,0,10.151,3.943,10.21,9.551l0.042,9.924
					c0,2.517-1.451,4.543-4.335,4.543H14.022c-3.39,0.14-4.24-2.026-4.24-4.543v-9.778C9.782,11.426,14.355,7.171,20.035,7.171z"/>
			</g>
		</g>
		<path fill="#FFFFFF" d="M47.584,33.573c0.001-0.045,0.003-0.092,0.003-0.138c0-5.467-5.93-9.9-13.245-9.9
			c-7.315,0-13.246,4.433-13.246,9.9c0,0.046,0.001,0.093,0.003,0.138H47.584z"/>
		<g>
			<path fill="#FFFFFF" d="M23.81,30.357c-0.049-0.078,0.412-1.686,2.412-3.336c1.636-1.348,3.25-1.216,3.32-1.14
				c0.06,0.107-1.39,0.438-3.063,1.755C24.808,28.951,23.885,30.426,23.81,30.357z"/>
		</g>
		<path fill="#FFFFFF" d="M38.002,24.231v-1.297c0-0.972-0.519-1.768-1.154-1.768h-4.77c-0.635,0-1.155,0.796-1.155,1.768v1.297
			H38.002z"/>
		<path fill="#FFFFFF" d="M50.726,34.702c0,0.713-0.385,1.289-0.859,1.289H18.964c-0.475,0-0.859-0.576-0.859-1.289l0,0
			c0-0.711,0.385-1.29,0.859-1.29h30.902C50.341,33.412,50.726,33.99,50.726,34.702L50.726,34.702z"/>
		<circle fill-rule="evenodd" clip-rule="evenodd" fill="#FFFFFF" cx="24.059" cy="39.811" r="1.687"/>
		<circle fill-rule="evenodd" clip-rule="evenodd" fill="#FFFFFF" cx="24.059" cy="45.354" r="1.687"/>
		<circle fill-rule="evenodd" clip-rule="evenodd" fill="#FFFFFF" cx="24.059" cy="50.898" r="1.687"/>
		<circle fill-rule="evenodd" clip-rule="evenodd" fill="#FFFFFF" cx="24.059" cy="56.442" r="1.687"/>
		<circle fill-rule="evenodd" clip-rule="evenodd" fill="#FFFFFF" cx="30.928" cy="39.811" r="1.688"/>
		<circle fill-rule="evenodd" clip-rule="evenodd" fill="#FFFFFF" cx="30.928" cy="45.354" r="1.688"/>
		<circle fill-rule="evenodd" clip-rule="evenodd" fill="#FFFFFF" cx="30.928" cy="50.898" r="1.688"/>
		<circle fill-rule="evenodd" clip-rule="evenodd" fill="#FFFFFF" cx="37.796" cy="39.811" r="1.687"/>
		<circle fill-rule="evenodd" clip-rule="evenodd" fill="#FFFFFF" cx="37.796" cy="45.354" r="1.687"/>
		<circle fill-rule="evenodd" clip-rule="evenodd" fill="#FFFFFF" cx="44.666" cy="39.811" r="1.687"/>
		<path fill="#FFFFFF" d="M36.7,5.039H32.29v4.012c0,2.477,0.007,12.862,0,15.15l4.373-0.013
			c-0.001-2.267-0.001-15.736-0.001-15.736C36.661,7.224,36.673,6.091,36.7,5.039z"/>
	</g>
	<g>
		<g>
			<g>
				<linearGradient id="SVGID_5_" gradientUnits="userSpaceOnUse" x1="2.4883" y1="2933.3398" x2="69.8013" y2="2933.3398">
					<stop  offset="0.0245" style="stop-color:#ABCF3C"/>
					<stop  offset="1" style="stop-color:#246533"/>
				</linearGradient>
				<path fill="url(#SVGID_5_)" d="M15.577,2899.684h41.135c7.251,0,13.089,5.68,13.089,12.734v41.845
					c0,7.056-5.837,12.734-13.089,12.734H15.577c-7.251,0-13.089-5.679-13.089-12.734v-41.845
					C2.488,2905.363,8.326,2899.684,15.577,2899.684z"/>
				<linearGradient id="SVGID_6_" gradientUnits="userSpaceOnUse" x1="64.606" y1="2961.1143" x2="6.1697" y2="2903.9639">
					<stop  offset="0.0245" style="stop-color:#D3E7BC"/>
					<stop  offset="1" style="stop-color:#002206"/>
				</linearGradient>
				<path fill="url(#SVGID_6_)" d="M17.636,2903.297h37.019c6.524,0,11.778,5.061,11.778,11.346v37.275
					c0,6.285-5.254,11.345-11.778,11.345H17.636c-6.526,0-11.78-5.06-11.78-11.345v-37.275
					C5.856,2908.357,11.11,2903.297,17.636,2903.297z"/>
				
					<linearGradient id="SVGID_7_" gradientUnits="userSpaceOnUse" x1="-636.1914" y1="-5824.2041" x2="-525.859" y2="-5953.7686" gradientTransform="matrix(0.3932 0 0 -0.3825 264.5781 680.7139)">
					<stop  offset="0.0245" style="stop-color:#ABCF3C"/>
					<stop  offset="1" style="stop-color:#246533"/>
				</linearGradient>
				<path fill="url(#SVGID_7_)" d="M18.634,2904.627h35.021c6.174,0,11.143,4.835,11.143,10.841v35.624
					c0,6.006-4.969,10.842-11.143,10.842H18.634c-6.172,0-11.142-4.836-11.142-10.842v-35.624
					C7.492,2909.462,12.462,2904.627,18.634,2904.627z"/>
				
					<linearGradient id="SVGID_8_" gradientUnits="userSpaceOnUse" x1="-711.9824" y1="-14778.2227" x2="-601.6522" y2="-14907.7842" gradientTransform="matrix(0.3617 0 0 -0.1603 272.2862 540.0293)">
					<stop  offset="0.0429" style="stop-color:#B3D898"/>
					<stop  offset="1" style="stop-color:#66BD5D"/>
				</linearGradient>
				<path opacity="0.8" fill="url(#SVGID_8_)" d="M20.035,2906.855h32.222c5.68,0,10.151,3.943,10.21,9.551l0.042,9.924
					c0,2.518-1.451,4.544-4.334,4.544H14.021c-3.389,0.14-4.24-2.026-4.24-4.544v-9.777
					C9.782,2911.109,14.355,2906.855,20.035,2906.855z"/>
			</g>
		</g>
		<g>
			<path fill="#FFFFFF" d="M50.901,2929.283c-0.017,0.56-0.524,1.018-1.13,1.018h-8.159c-0.605,0-1.109-0.459-1.121-1.018
				l-0.326-16.518c-0.011-0.561,0.31-0.715,0.916-0.715h9.37c0.605,0,0.923,0.154,0.907,0.715L50.901,2929.283z"/>
		</g>
		<path fill="#FFFFFF" d="M49.832,2932.24H19.017c-0.608,0-1.103,0.57-1.103,1.27v0.307c0,0.701,0.495,1.27,1.103,1.27h30.814
			c0.608,0,1.103-0.568,1.103-1.27v-0.307C50.935,2932.811,50.44,2932.24,49.832,2932.24z"/>
		<path fill="#FFFFFF" d="M40.246,2909.166c-0.027,0.094-0.066,0.309-0.066,0.628v0.382c0,0.318,0.04,0.533,0.066,0.626h11.103
			c0.028-0.094,0.065-0.31,0.065-0.626v-0.382c0-0.319-0.039-0.534-0.066-0.628H40.246z"/>
		<path fill="#FFFFFF" d="M47.315,2907.434c0,0.407-0.021,0.738-0.045,0.738h-2.189c-0.025,0-0.045-0.331-0.045-0.738v-0.277
			c0-0.409,0.021-0.738,0.045-0.738h2.189c0.025,0,0.045,0.329,0.045,0.738V2907.434z"/>
		<path fill="#FFFFFF" d="M48.799,2941.012c0.395-1.553,1.274-2.926,1.274-4.539c0-0.053-0.001-0.106-0.002-0.159H18.747
			c-0.001,0.053-0.003,0.106-0.003,0.159c0,5.59,5.454,10.244,12.675,11.268l-0.459,12.299h1.706l0.166-13.941
			c-5.962-0.713-10.147-3.084-11.376-6.282c1.623,2.935,8.699,5.19,12.999,3.934l0.125,16.29H49.51
			C49.51,2960.039,47.625,2945.637,48.799,2941.012z"/>
	</g>
	<g>
		<g>
			<g>
				<linearGradient id="SVGID_9_" gradientUnits="userSpaceOnUse" x1="2.4883" y1="2127.873" x2="69.8018" y2="2127.873">
					<stop  offset="0.0245" style="stop-color:#ABCF3C"/>
					<stop  offset="1" style="stop-color:#246533"/>
				</linearGradient>
				<path fill="url(#SVGID_9_)" d="M15.577,2094.217h41.135c7.252,0,13.089,5.68,13.089,12.734v41.844
					c0,7.056-5.837,12.734-13.089,12.734H15.577c-7.251,0-13.089-5.679-13.089-12.734v-41.844
					C2.488,2099.896,8.326,2094.217,15.577,2094.217z"/>
				<linearGradient id="SVGID_10_" gradientUnits="userSpaceOnUse" x1="64.6064" y1="2155.6475" x2="6.171" y2="2098.4978">
					<stop  offset="0.0245" style="stop-color:#D3E7BC"/>
					<stop  offset="1" style="stop-color:#002206"/>
				</linearGradient>
				<path fill="url(#SVGID_10_)" d="M17.637,2097.83h37.018c6.525,0,11.778,5.06,11.778,11.345v37.276
					c0,6.285-5.253,11.344-11.778,11.344H17.637c-6.527,0-11.78-5.059-11.78-11.344v-37.276
					C5.857,2102.89,11.11,2097.83,17.637,2097.83z"/>
				
					<linearGradient id="SVGID_11_" gradientUnits="userSpaceOnUse" x1="-636.1909" y1="-3718.4062" x2="-525.8572" y2="-3847.9722" gradientTransform="matrix(0.3932 0 0 -0.3825 264.5781 680.7139)">
					<stop  offset="0.0245" style="stop-color:#ABCF3C"/>
					<stop  offset="1" style="stop-color:#246533"/>
				</linearGradient>
				<path fill="url(#SVGID_11_)" d="M18.634,2099.159h35.021c6.174,0,11.143,4.835,11.143,10.841v35.624
					c0,6.007-4.969,10.842-11.143,10.842H18.634c-6.172,0-11.143-4.835-11.143-10.842V2110
					C7.492,2103.994,12.462,2099.159,18.634,2099.159z"/>
				
					<linearGradient id="SVGID_12_" gradientUnits="userSpaceOnUse" x1="-711.9829" y1="-9753.4727" x2="-601.6519" y2="-9883.0352" gradientTransform="matrix(0.3617 0 0 -0.1603 272.2862 540.0293)">
					<stop  offset="0.0429" style="stop-color:#B3D898"/>
					<stop  offset="1" style="stop-color:#66BD5D"/>
				</linearGradient>
				<path opacity="0.8" fill="url(#SVGID_12_)" d="M20.035,2101.388h32.221c5.68,0,10.151,3.943,10.211,9.552l0.041,9.924
					c0,2.518-1.45,4.543-4.334,4.543H14.022c-3.389,0.141-4.24-2.025-4.24-4.543v-9.778
					C9.782,2105.643,14.355,2101.388,20.035,2101.388z"/>
			</g>
		</g>
		<path fill="#FFFFFF" d="M35.098,2108.498c-10.359,0-18.758,8.399-18.758,18.759c0,10.36,8.398,18.758,18.758,18.758
			c10.359,0,18.757-8.397,18.757-18.758C53.855,2116.897,45.457,2108.498,35.098,2108.498z M26.815,2129.77
			c-1.388,0-2.513-1.125-2.513-2.512c0-1.389,1.125-2.514,2.513-2.514c1.388,0,2.512,1.125,2.512,2.514
			C29.328,2128.645,28.203,2129.77,26.815,2129.77z M43.381,2129.77c-1.388,0-2.513-1.125-2.513-2.512
			c0-1.389,1.125-2.514,2.513-2.514c1.387,0,2.513,1.125,2.513,2.514C45.894,2128.645,44.769,2129.77,43.381,2129.77z"/>
	</g>
	<g>
		<g>
			<g>
				<linearGradient id="SVGID_13_" gradientUnits="userSpaceOnUse" x1="2.4883" y1="2772.2471" x2="69.8018" y2="2772.2471">
					<stop  offset="0.0245" style="stop-color:#ABCF3C"/>
					<stop  offset="1" style="stop-color:#246533"/>
				</linearGradient>
				<path fill="url(#SVGID_13_)" d="M15.577,2738.591h41.135c7.252,0,13.089,5.68,13.089,12.734v41.844
					c0,7.056-5.837,12.734-13.089,12.734H15.577c-7.251,0-13.089-5.679-13.089-12.734v-41.844
					C2.488,2744.271,8.326,2738.591,15.577,2738.591z"/>
				<linearGradient id="SVGID_14_" gradientUnits="userSpaceOnUse" x1="64.6064" y1="2800.0225" x2="6.1695" y2="2742.8713">
					<stop  offset="0.0245" style="stop-color:#D3E7BC"/>
					<stop  offset="1" style="stop-color:#002206"/>
				</linearGradient>
				<path fill="url(#SVGID_14_)" d="M17.637,2742.204h37.018c6.525,0,11.779,5.06,11.779,11.345v37.276
					c0,6.285-5.253,11.344-11.779,11.344H17.637c-6.527,0-11.78-5.059-11.78-11.344v-37.276
					C5.856,2747.264,11.11,2742.204,17.637,2742.204z"/>
				
					<linearGradient id="SVGID_15_" gradientUnits="userSpaceOnUse" x1="-636.1914" y1="-5403.0439" x2="-525.8582" y2="-5532.6094" gradientTransform="matrix(0.3932 0 0 -0.3825 264.5781 680.7139)">
					<stop  offset="0.0245" style="stop-color:#ABCF3C"/>
					<stop  offset="1" style="stop-color:#246533"/>
				</linearGradient>
				<path fill="url(#SVGID_15_)" d="M18.634,2743.533h35.021c6.173,0,11.144,4.835,11.144,10.841v35.624
					c0,6.007-4.97,10.842-11.144,10.842H18.634c-6.172,0-11.143-4.835-11.143-10.842v-35.624
					C7.492,2748.368,12.462,2743.533,18.634,2743.533z"/>
				
					<linearGradient id="SVGID_16_" gradientUnits="userSpaceOnUse" x1="-711.9839" y1="-13773.2715" x2="-601.6525" y2="-13902.835" gradientTransform="matrix(0.3617 0 0 -0.1603 272.2862 540.0293)">
					<stop  offset="0.0429" style="stop-color:#B3D898"/>
					<stop  offset="1" style="stop-color:#66BD5D"/>
				</linearGradient>
				<path opacity="0.8" fill="url(#SVGID_16_)" d="M20.035,2745.762h32.222c5.679,0,10.151,3.943,10.21,9.552l0.042,9.924
					c0,2.518-1.45,4.543-4.334,4.543H14.021c-3.389,0.141-4.239-2.025-4.239-4.543v-9.778
					C9.782,2750.017,14.355,2745.762,20.035,2745.762z"/>
			</g>
		</g>
		<g>
			<defs>
				<path id="SVGID_17_" d="M18.634,2743.533h35.021c6.173,0,11.144,4.835,11.144,10.841v35.624c0,6.007-4.97,10.842-11.144,10.842
					H18.634c-6.172,0-11.143-4.835-11.143-10.842v-35.624C7.492,2748.368,12.462,2743.533,18.634,2743.533z"/>
			</defs>
			<clipPath id="SVGID_18_">
				<use xlink:href="#SVGID_17_"  overflow="visible"/>
			</clipPath>
		</g>
		<g>
			<defs>
				<path id="SVGID_19_" d="M18.634,2743.533h35.021c6.173,0,11.144,4.835,11.144,10.841v35.624c0,6.007-4.97,10.842-11.144,10.842
					H18.634c-6.172,0-11.143-4.835-11.143-10.842v-35.624C7.492,2748.368,12.462,2743.533,18.634,2743.533z"/>
			</defs>
			<clipPath id="SVGID_20_">
				<use xlink:href="#SVGID_19_"  overflow="visible"/>
			</clipPath>
			<path clip-path="url(#SVGID_20_)" fill="#FFFFFF" d="M29.627,2731.464c-10.359,0-18.758,8.399-18.758,18.759
				c0,10.36,8.398,18.758,18.758,18.758c10.359,0,18.757-8.397,18.757-18.758C48.384,2739.863,39.986,2731.464,29.627,2731.464z
				 M21.344,2752.735c-1.388,0-2.513-1.125-2.513-2.512c0-1.389,1.125-2.514,2.513-2.514c1.387,0,2.512,1.125,2.512,2.514
				C23.856,2751.61,22.731,2752.735,21.344,2752.735z M37.91,2752.735c-1.388,0-2.514-1.125-2.514-2.512
				c0-1.389,1.125-2.514,2.514-2.514c1.387,0,2.512,1.125,2.512,2.514C40.422,2751.61,39.297,2752.735,37.91,2752.735z"/>
			<g clip-path="url(#SVGID_20_)">
				<path fill="#FFFFFF" d="M30.473,2787.199l30.552-11.271c0.448-0.439,0.641-1.078,0.427-1.657l-1.298-3.517
					c-0.298-0.814-1.279-1.209-2.174-0.879l-5.204,1.92l-2.475-6.71c-0.14-0.38-0.597-0.563-1.015-0.41l-2.384,0.88
					c-0.419,0.154-0.647,0.59-0.507,0.973l2.476,6.709l-10.809,3.986l-2.475-6.709c-0.14-0.381-0.598-0.564-1.016-0.41l-2.383,0.879
					c-0.418,0.154-0.646,0.591-0.507,0.972l2.475,6.709l-5.298,1.954c-0.896,0.331-1.384,1.268-1.084,2.08l1.297,3.516
					C29.284,2786.795,29.845,2787.155,30.473,2787.199z"/>
				<path fill="#FFFFFF" d="M59.272,2778.086l-26.07,9.616c0.042,0.15,0.074,0.302,0.13,0.45l2.67,7.24
					c1.149,3.118,4.644,4.729,7.763,3.579l6.103-2.252l8.898,24.122l2.787-1.038l-8.893-24.113l5.896-2.175
					c3.12-1.151,4.731-4.646,3.58-7.764l-2.67-7.239C59.412,2778.363,59.338,2778.228,59.272,2778.086z M49.082,2791.163
					c-1.349,0.498-2.846-0.191-3.342-1.541c-0.498-1.348,0.192-2.844,1.541-3.342c1.347-0.498,2.845,0.193,3.342,1.541
					C51.12,2789.17,50.429,2790.666,49.082,2791.163z"/>
			</g>
		</g>
	</g>
	<g>
		<g>
			<g>
				<linearGradient id="SVGID_21_" gradientUnits="userSpaceOnUse" x1="2.4883" y1="2450.0596" x2="69.8018" y2="2450.0596">
					<stop  offset="0.0245" style="stop-color:#ABCF3C"/>
					<stop  offset="1" style="stop-color:#246533"/>
				</linearGradient>
				<path fill="url(#SVGID_21_)" d="M15.578,2416.403h41.135c7.252,0,13.089,5.679,13.089,12.734v41.844
					c0,7.055-5.837,12.734-13.089,12.734H15.578c-7.251,0-13.089-5.68-13.089-12.734v-41.844
					C2.488,2422.082,8.327,2416.403,15.578,2416.403z"/>
				<linearGradient id="SVGID_22_" gradientUnits="userSpaceOnUse" x1="64.606" y1="2477.834" x2="6.1705" y2="2420.6843">
					<stop  offset="0.0245" style="stop-color:#D3E7BC"/>
					<stop  offset="1" style="stop-color:#002206"/>
				</linearGradient>
				<path fill="url(#SVGID_22_)" d="M17.637,2420.017h37.018c6.525,0,11.779,5.059,11.779,11.344v37.276
					c0,6.285-5.253,11.345-11.779,11.345H17.637c-6.526,0-11.78-5.06-11.78-11.345v-37.276
					C5.857,2425.075,11.11,2420.017,17.637,2420.017z"/>
				
					<linearGradient id="SVGID_23_" gradientUnits="userSpaceOnUse" x1="-636.1904" y1="-4560.7231" x2="-525.858" y2="-4690.2876" gradientTransform="matrix(0.3932 0 0 -0.3825 264.5781 680.7139)">
					<stop  offset="0.0245" style="stop-color:#ABCF3C"/>
					<stop  offset="1" style="stop-color:#246533"/>
				</linearGradient>
				<path fill="url(#SVGID_23_)" d="M18.634,2421.345h35.021c6.173,0,11.144,4.836,11.144,10.842v35.623
					c0,6.008-4.97,10.842-11.144,10.842H18.634c-6.172,0-11.143-4.834-11.143-10.842v-35.623
					C7.492,2426.181,12.462,2421.345,18.634,2421.345z"/>
				
					<linearGradient id="SVGID_24_" gradientUnits="userSpaceOnUse" x1="-711.9824" y1="-11763.3652" x2="-601.6497" y2="-11892.9307" gradientTransform="matrix(0.3617 0 0 -0.1603 272.2862 540.0293)">
					<stop  offset="0.0429" style="stop-color:#B3D898"/>
					<stop  offset="1" style="stop-color:#66BD5D"/>
				</linearGradient>
				<path opacity="0.8" fill="url(#SVGID_24_)" d="M20.035,2423.573h32.221c5.68,0,10.151,3.943,10.21,9.552l0.042,9.925
					c0,2.517-1.45,4.543-4.334,4.543H14.022c-3.389,0.141-4.24-2.026-4.24-4.543v-9.779
					C9.782,2427.829,14.355,2423.573,20.035,2423.573z"/>
			</g>
		</g>
		<path fill="#FFFFFF" d="M28.12,2427.553c-1.247,0.032-2.116,0.556-2.642,1.739l-10.848,25.868
			c-0.87,2.027-0.144,3.658,1.808,3.686c13.514,0,25.138,0,40.542,0c1.85-0.015,2.635-1.885,1.842-3.615l-10.292-25.938
			c-0.508-1.148-1.182-1.718-2.607-1.739H28.12z M30.415,2431.481h3.407c1.128,0.051,1.467,0.585,1.252,1.461l-2.956,19.055
			c-0.278,1.696-1.247,2.131-2.434,2.086c-2.638,0-4.333,0-7.718,0c-1.41-0.02-1.916-1.178-1.287-2.643l7.823-18.707
			C28.882,2431.88,29.514,2431.505,30.415,2431.481z M35.283,2460.55c-0.308,0-0.556,0.248-0.556,0.557v5.84H26.59
			c-0.616,0-1.113,0.497-1.113,1.113v1.564c0,0.617,0.497,1.113,1.113,1.113h19.785c0.617,0,1.112-0.496,1.112-1.113v-1.564
			c0-0.616-0.495-1.113-1.112-1.113H38.76v-5.84c0-0.309-0.248-0.557-0.556-0.557H35.283z"/>
	</g>
	<g>
		<g>
			<g>
				<linearGradient id="SVGID_25_" gradientUnits="userSpaceOnUse" x1="2.4883" y1="2611.1533" x2="69.8018" y2="2611.1533">
					<stop  offset="0.0245" style="stop-color:#ABCF3C"/>
					<stop  offset="1" style="stop-color:#246533"/>
				</linearGradient>
				<path fill="url(#SVGID_25_)" d="M15.578,2577.497h41.135c7.252,0,13.089,5.68,13.089,12.734v41.844
					c0,7.057-5.837,12.734-13.089,12.734H15.578c-7.251,0-13.09-5.678-13.09-12.734v-41.844
					C2.488,2583.177,8.327,2577.497,15.578,2577.497z"/>
				<linearGradient id="SVGID_26_" gradientUnits="userSpaceOnUse" x1="64.606" y1="2638.9277" x2="6.1705" y2="2581.7781">
					<stop  offset="0.0245" style="stop-color:#D3E7BC"/>
					<stop  offset="1" style="stop-color:#002206"/>
				</linearGradient>
				<path fill="url(#SVGID_26_)" d="M17.637,2581.11h37.019c6.524,0,11.778,5.061,11.778,11.346v37.275
					c0,6.285-5.254,11.344-11.778,11.344H17.637c-6.526,0-11.779-5.059-11.779-11.344v-37.275
					C5.857,2586.171,11.11,2581.11,17.637,2581.11z"/>
				
					<linearGradient id="SVGID_27_" gradientUnits="userSpaceOnUse" x1="-636.189" y1="-4981.8848" x2="-525.8556" y2="-5111.4502" gradientTransform="matrix(0.3932 0 0 -0.3825 264.5781 680.7139)">
					<stop  offset="0.0245" style="stop-color:#ABCF3C"/>
					<stop  offset="1" style="stop-color:#246533"/>
				</linearGradient>
				<path fill="url(#SVGID_27_)" d="M18.635,2582.44h35.021c6.174,0,11.143,4.834,11.143,10.84v35.625
					c0,6.006-4.969,10.842-11.143,10.842H18.635c-6.172,0-11.142-4.836-11.142-10.842v-35.625
					C7.493,2587.274,12.463,2582.44,18.635,2582.44z"/>
				
					<linearGradient id="SVGID_28_" gradientUnits="userSpaceOnUse" x1="-711.9814" y1="-12768.3252" x2="-601.6536" y2="-12897.8848" gradientTransform="matrix(0.3617 0 0 -0.1603 272.2862 540.0293)">
					<stop  offset="0.0429" style="stop-color:#B3D898"/>
					<stop  offset="1" style="stop-color:#66BD5D"/>
				</linearGradient>
				<path opacity="0.8" fill="url(#SVGID_28_)" d="M20.036,2584.669h32.221c5.68,0,10.15,3.943,10.21,9.551l0.042,9.924
					c0,2.518-1.45,4.543-4.334,4.543H14.022c-3.39,0.141-4.24-2.025-4.24-4.543v-9.777
					C9.782,2588.923,14.355,2584.669,20.036,2584.669z"/>
			</g>
		</g>
		<g>
			<path fill="#FFFFFF" d="M40.588,2618.368c-1.005,0-1.839,0.803-1.839,1.809s0.834,1.84,1.839,1.84c1.007,0,1.81-0.834,1.809-1.84
				C42.397,2619.171,41.595,2618.368,40.588,2618.368z"/>
			<path fill="#FFFFFF" d="M52.073,2602.069v-10.189c0-1.975-1.61-3.553-3.586-3.553H22.03c-1.975,0-3.585,1.578-3.585,3.553v10.189
				h-0.002v4.617h0.002v24.277c0,1.975,1.61,3.584,3.585,3.584h26.457c1.976,0,3.586-1.609,3.586-3.584v-24.277h0.015v-4.617H52.073
				z M24.695,2599.397c0,0.33-0.405,0.604-0.888,0.604h-1.301c-0.482,0-0.888-0.273-0.888-0.604v-7.422
				c0-0.33,0.405-0.604,0.888-0.604h1.301c0.482,0,0.888,0.273,0.888,0.604V2599.397z M48.679,2619.13
				c-0.051,0.23-0.216,0.42-0.444,0.539l-0.159,0.033c-1.089,0.057-1.968-0.555-2.76-0.857c-0.422,0.232-0.845,0.457-1.27,0.697
				c0.082,0.48,0.088,0.912-0.062,1.365c0.403,0.248,0.806,0.506,1.206,0.76c0.364-0.061,0.81-0.412,1.427-0.57
				c0.188-0.053,0.585-0.23,0.983-0.285c0.198-0.029,0.417-0.016,0.635,0.096c0.218,0.109,0.393,0.363,0.444,0.633v0.127
				c-0.099,0.479-0.485,0.775-0.825,0.953c-0.265,0.137-0.494,0.223-0.697,0.316c0.091,0.055,0.194,0.1,0.285,0.191
				c0.011,0.01,0.022,0.023,0.031,0.031c0.152,0.113,0.464,0.277,0.699,0.539c0.125,0.141,0.233,0.334,0.252,0.572
				c0.019,0.236-0.089,0.49-0.285,0.664l-0.19,0.064c-0.487,0.07-0.925-0.07-1.301-0.254c-0.171-0.084-0.321-0.17-0.476-0.254
				c0.046,0.557,0.171,1.086-0.063,1.617c-0.091,0.166-0.262,0.334-0.476,0.412c-0.215,0.08-0.447,0.059-0.667-0.062l-0.126-0.127
				c-0.655-0.908-0.526-2.02-0.666-2.855c-0.412-0.242-0.853-0.488-1.27-0.73c-0.376,0.322-0.707,0.506-1.174,0.668
				c-0.011,0.418-0.015,0.852-0.031,1.268c0.309,0.338,0.831,0.623,1.301,1.08c0.008,0.006,0.024-0.006,0.031,0
				c0.176,0.148,0.468,0.385,0.666,0.697c0.104,0.164,0.189,0.359,0.159,0.602c-0.031,0.244-0.213,0.465-0.444,0.604l-0.095,0.062
				c-0.483,0.1-0.912-0.125-1.237-0.348c-0.198-0.135-0.35-0.227-0.507-0.35c-0.024,0.518-0.062,1.049-0.191,1.555
				c-0.058,0.172-0.154,0.348-0.348,0.477c-0.195,0.129-0.458,0.146-0.699,0.062l-0.157-0.127c-0.314-0.385-0.412-0.84-0.446-1.27
				c-0.019-0.262-0.023-0.494-0.031-0.729c-0.127,0.109-0.263,0.256-0.443,0.35c-0.048,0.025-0.073,0.045-0.128,0.062
				c-0.238,0.188-0.529,0.34-0.856,0.35c-0.189,0.006-0.393-0.043-0.57-0.191c-0.179-0.146-0.286-0.381-0.286-0.633l0.032-0.16
				c0.148-0.707,1.456-1.459,2.125-1.998c0.004-0.443,0.03-0.914,0.032-1.363c-0.463-0.131-0.88-0.385-1.236-0.699
				c-0.38,0.203-0.791,0.408-1.174,0.604c-0.131,0.389-0.113,0.988-0.255,1.586c-0.046,0.193-0.092,0.592-0.254,0.951
				c-0.081,0.18-0.201,0.355-0.412,0.477s-0.513,0.137-0.762,0.031l-0.095-0.062c-0.383-0.33-0.44-0.814-0.412-1.205
				c0.019-0.277,0.068-0.486,0.095-0.697c-0.062,0.035-0.125,0.057-0.19,0.094c-0.421,0.17-0.818,0.387-1.27,0.477
				c-0.183,0.031-0.393,0.049-0.603-0.064c-0.208-0.111-0.34-0.346-0.38-0.602l0.031-0.225c0.098-0.562,0.948-1.021,1.491-1.332
				c-0.162-0.076-0.346-0.133-0.507-0.221c-0.028-0.008-0.036-0.023-0.064-0.031c-0.308-0.107-0.577-0.305-0.761-0.604
				c-0.101-0.162-0.168-0.373-0.127-0.602s0.191-0.447,0.413-0.572l0.158-0.064c1.101-0.08,1.993,0.576,2.791,0.889
				c0.399-0.219,0.806-0.439,1.206-0.666c-0.081-0.381-0.09-1.074,0.031-1.428c-0.39-0.236-0.784-0.518-1.175-0.729
				c-0.061-0.004-0.161,0.043-0.284,0.094c-0.58,0.289-1.169,0.48-1.776,0.699c-0.175,0.053-0.394,0.084-0.602,0.062
				c-0.211-0.021-0.436-0.107-0.604-0.285l-0.063-0.094c-0.116-0.258-0.103-0.539,0-0.764c0.104-0.221,0.271-0.393,0.444-0.506
				c0.346-0.229,0.745-0.344,0.92-0.445c-0.02-0.012-0.038-0.051-0.063-0.062l-0.062-0.064c-0.149-0.137-0.444-0.262-0.73-0.477
				c-0.286-0.211-0.601-0.576-0.603-1.045l0.032-0.127c0.117-0.238,0.342-0.428,0.57-0.477s0.422,0,0.603,0.064
				c0.361,0.125,0.723,0.309,0.857,0.35l0.03,0.031c0.14,0.059,0.2,0.09,0.317,0.158c0.004-0.201-0.062-0.514-0.062-0.889
				c0-0.201,0.024-0.424,0.126-0.635c0.103-0.209,0.316-0.412,0.571-0.508h0.031c0.272-0.068,0.488,0.051,0.604,0.127l0.095,0.096
				c0.637,0.918,0.533,2.008,0.666,2.854c0.4,0.234,0.801,0.465,1.207,0.699c0.393-0.332,0.927-0.631,1.268-0.666
				c0.009-0.455,0.017-0.908,0.031-1.365c0-0.104-0.007-0.254-0.062-0.285c-0.524-0.316-0.96-0.719-1.459-1.078
				c-0.301-0.26-0.599-0.623-0.636-1.109l0.033-0.158c0.092-0.252,0.281-0.461,0.508-0.541c0.225-0.08,0.416-0.061,0.602,0
				c0.338,0.111,0.601,0.342,0.794,0.477c0.019,0.014,0.077,0.02,0.095,0.031c0.111,0.055,0.208,0.125,0.286,0.191
				c0.019-0.213,0.003-0.434,0.031-0.73c0.019-0.201,0.058-0.43,0.158-0.635s0.297-0.391,0.54-0.506l0.096-0.033
				c0.023-0.004,0.068,0,0.126,0c0.119,0.002,0.259,0.041,0.381,0.127l0.063,0.064c0.309,0.383,0.382,0.846,0.412,1.268
				c0.015,0.195,0.028,0.328,0.032,0.508c0.133-0.088,0.286-0.17,0.412-0.254c0.02-0.021,0.043-0.043,0.063-0.062
				c0.254-0.25,0.583-0.402,0.951-0.412c0.2-0.006,0.422,0.031,0.603,0.189c0.182,0.158,0.269,0.434,0.254,0.697l-0.031,0.127
				c-0.502,0.969-1.465,1.428-2.126,1.967c-0.003,0.504,0,1.014,0,1.523c0.425,0.188,0.842,0.455,1.175,0.793
				c0.126-0.064,0.254-0.125,0.38-0.191l0.032-0.031c0.329-0.146,0.622-0.26,0.793-0.412c0.283-0.549,0.298-1.227,0.412-1.871
				c0.079-0.434,0.213-0.936,0.666-1.238l0.19-0.062c0.312-0.025,0.6,0.1,0.762,0.318c0.161,0.217,0.213,0.467,0.222,0.697
				c0.018,0.438-0.059,0.889-0.064,1.078c0.106-0.053,0.137-0.08,0.255-0.127c0.16-0.061,0.519-0.262,0.889-0.348
				c0.185-0.045,0.382-0.062,0.603,0.029c0.22,0.094,0.411,0.314,0.476,0.572c0.014,0.057-0.012,0.146-0.031,0.223
				c-0.177,0.459-0.537,0.746-0.89,0.982c-0.161,0.109-0.288,0.193-0.444,0.285c0.504,0.234,1.041,0.406,1.365,0.889
				C48.681,2618.663,48.729,2618.899,48.679,2619.13z"/>
		</g>
	</g>
	<g>
		<g>
			<g>
				<linearGradient id="SVGID_29_" gradientUnits="userSpaceOnUse" x1="2.4883" y1="839.124" x2="69.8008" y2="839.124">
					<stop  offset="0.0245" style="stop-color:#ABCF3C"/>
					<stop  offset="1" style="stop-color:#246533"/>
				</linearGradient>
				<path fill="url(#SVGID_29_)" d="M15.577,805.468h41.135c7.252,0,13.089,5.68,13.089,12.734v41.844
					c0,7.056-5.837,12.734-13.089,12.734H15.577c-7.251,0-13.089-5.679-13.089-12.734v-41.844
					C2.488,811.147,8.326,805.468,15.577,805.468z"/>
				<linearGradient id="SVGID_30_" gradientUnits="userSpaceOnUse" x1="64.6055" y1="866.8984" x2="6.17" y2="809.7487">
					<stop  offset="0.0245" style="stop-color:#D3E7BC"/>
					<stop  offset="1" style="stop-color:#002206"/>
				</linearGradient>
				<path fill="url(#SVGID_30_)" d="M17.636,809.081h37.019c6.525,0,11.778,5.06,11.778,11.345v37.276
					c0,6.285-5.253,11.344-11.778,11.344H17.636c-6.525,0-11.779-5.059-11.779-11.344v-37.276
					C5.856,814.141,11.11,809.081,17.636,809.081z"/>
				
					<linearGradient id="SVGID_31_" gradientUnits="userSpaceOnUse" x1="-636.1904" y1="-349.1279" x2="-525.8579" y2="-478.6926" gradientTransform="matrix(0.3932 0 0 -0.3825 264.5781 680.7139)">
					<stop  offset="0.0245" style="stop-color:#ABCF3C"/>
					<stop  offset="1" style="stop-color:#246533"/>
				</linearGradient>
				<path fill="url(#SVGID_31_)" d="M18.634,810.41h35.021c6.174,0,11.144,4.835,11.144,10.841v35.624
					c0,6.007-4.97,10.842-11.144,10.842H18.634c-6.172,0-11.142-4.835-11.142-10.842v-35.624
					C7.492,815.245,12.462,810.41,18.634,810.41z"/>
				
					<linearGradient id="SVGID_32_" gradientUnits="userSpaceOnUse" x1="-711.9849" y1="-1713.8643" x2="-601.6532" y2="-1843.4279" gradientTransform="matrix(0.3617 0 0 -0.1603 272.2862 540.0293)">
					<stop  offset="0.0429" style="stop-color:#B3D898"/>
					<stop  offset="1" style="stop-color:#66BD5D"/>
				</linearGradient>
				<path opacity="0.8" fill="url(#SVGID_32_)" d="M20.034,812.639h32.222c5.68,0,10.151,3.943,10.211,9.552l0.041,9.924
					c0,2.518-1.45,4.543-4.334,4.543H14.022c-3.39,0.141-4.241-2.025-4.241-4.543v-9.778
					C9.781,816.894,14.354,812.639,20.034,812.639z"/>
			</g>
		</g>
		<path fill="#FFFFFF" d="M27.115,847.97c-1.007,0-1.841,0.834-1.841,1.839c0,1.007,0.834,1.809,1.841,1.808
			c1.005,0.001,1.808-0.801,1.808-1.808C28.923,848.804,28.12,847.97,27.115,847.97z"/>
		<polygon fill="#FFFFFF" points="12.989,822.794 12.989,825.544 27.955,825.544 27.955,824.895 44.507,824.895 44.507,825.544 
			58.92,825.544 58.92,822.794 		"/>
		<path fill="#FFFFFF" d="M58.879,827.716H44.507v1.164H27.955v-1.164H12.97l-0.227,29.992c0,1.976,1.61,3.585,3.585,3.585h24.278
			v0.016h4.615v-0.016h10.189c1.976,0,3.554-1.609,3.554-3.585L58.879,827.716z M36.124,849.999
			c-0.002,0.119-0.039,0.26-0.127,0.381l-0.063,0.063c-0.382,0.309-0.847,0.382-1.269,0.413c-0.195,0.014-0.328,0.027-0.509,0.031
			c0.089,0.133,0.171,0.287,0.254,0.412c0.022,0.02,0.043,0.043,0.064,0.064c0.25,0.254,0.402,0.582,0.412,0.951
			c0.005,0.199-0.031,0.422-0.19,0.602c-0.158,0.183-0.435,0.27-0.697,0.255l-0.127-0.032c-0.97-0.501-1.427-1.463-1.967-2.125
			c-0.503-0.004-1.013,0-1.523,0c-0.187,0.424-0.455,0.842-0.793,1.174c0.066,0.127,0.126,0.256,0.191,0.381l0.031,0.031
			c0.146,0.33,0.26,0.622,0.412,0.793c0.551,0.283,1.227,0.299,1.871,0.412c0.434,0.08,0.938,0.213,1.238,0.666l0.062,0.191
			c0.025,0.312-0.099,0.6-0.317,0.762c-0.218,0.161-0.467,0.213-0.697,0.221c-0.438,0.019-0.888-0.059-1.079-0.063
			c0.052,0.105,0.081,0.137,0.127,0.255c0.061,0.16,0.262,0.518,0.349,0.888c0.045,0.185,0.062,0.383-0.031,0.603
			c-0.093,0.221-0.312,0.412-0.57,0.477c-0.056,0.014-0.147-0.012-0.224-0.032c-0.459-0.177-0.745-0.536-0.982-0.889
			c-0.11-0.161-0.193-0.288-0.284-0.444c-0.234,0.504-0.406,1.041-0.89,1.365c-0.167,0.098-0.404,0.146-0.635,0.096
			s-0.42-0.217-0.539-0.444l-0.032-0.159c-0.057-1.09,0.554-1.969,0.856-2.76c-0.232-0.423-0.457-0.846-0.697-1.27
			c-0.48,0.082-0.912,0.088-1.364-0.063c-0.249,0.404-0.505,0.807-0.761,1.206c0.062,0.365,0.413,0.81,0.571,1.428
			c0.052,0.188,0.229,0.586,0.284,0.982c0.029,0.199,0.016,0.418-0.095,0.636c-0.109,0.217-0.364,0.392-0.634,0.444h-0.127
			c-0.479-0.1-0.776-0.484-0.952-0.826c-0.137-0.264-0.224-0.494-0.316-0.697c-0.054,0.092-0.1,0.193-0.191,0.285
			c-0.011,0.011-0.024,0.021-0.031,0.031c-0.113,0.153-0.279,0.465-0.539,0.699c-0.141,0.125-0.335,0.234-0.572,0.253
			s-0.49-0.089-0.665-0.285l-0.063-0.19c-0.072-0.488,0.068-0.926,0.253-1.301c0.085-0.172,0.17-0.321,0.254-0.476
			c-0.556,0.046-1.085,0.17-1.617-0.063c-0.166-0.092-0.334-0.262-0.412-0.477c-0.079-0.214-0.057-0.447,0.063-0.666l0.127-0.127
			c0.906-0.654,2.019-0.525,2.854-0.666c0.243-0.412,0.488-0.852,0.729-1.27c-0.319-0.375-0.503-0.706-0.667-1.173
			c-0.417-0.011-0.851-0.015-1.268-0.032c-0.338,0.309-0.622,0.831-1.079,1.301c-0.008,0.008,0.007,0.025,0,0.032
			c-0.147,0.176-0.387,0.468-0.697,0.665c-0.164,0.105-0.36,0.189-0.603,0.16c-0.242-0.032-0.465-0.213-0.604-0.444l-0.062-0.095
			c-0.1-0.484,0.124-0.912,0.348-1.238c0.136-0.197,0.227-0.348,0.349-0.508c-0.517-0.023-1.046-0.06-1.554-0.189
			c-0.172-0.059-0.347-0.155-0.477-0.349c-0.129-0.194-0.146-0.458-0.062-0.698l0.126-0.158c0.385-0.314,0.84-0.412,1.27-0.445
			c0.264-0.02,0.494-0.023,0.729-0.031c-0.11-0.127-0.256-0.263-0.35-0.444c-0.025-0.048-0.044-0.073-0.064-0.126
			c-0.186-0.24-0.338-0.531-0.35-0.857c-0.005-0.189,0.043-0.394,0.191-0.571c0.149-0.177,0.383-0.285,0.635-0.285l0.159,0.032
			c0.706,0.146,1.461,1.455,1.998,2.125c0.443,0.003,0.916,0.029,1.363,0.032c0.13-0.464,0.385-0.88,0.699-1.237
			c-0.203-0.379-0.407-0.79-0.604-1.174c-0.389-0.131-0.988-0.112-1.586-0.254c-0.193-0.047-0.593-0.093-0.951-0.254
			c-0.181-0.08-0.355-0.203-0.476-0.413c-0.121-0.21-0.138-0.511-0.032-0.761l0.063-0.095c0.329-0.382,0.813-0.44,1.206-0.413
			c0.277,0.02,0.483,0.068,0.697,0.096c-0.037-0.062-0.058-0.126-0.096-0.191c-0.17-0.421-0.386-0.818-0.476-1.268
			c-0.031-0.184-0.048-0.395,0.063-0.604c0.112-0.209,0.347-0.342,0.604-0.381l0.222,0.032c0.563,0.098,1.022,0.948,1.332,1.491
			c0.078-0.163,0.133-0.346,0.223-0.508c0.008-0.027,0.022-0.036,0.031-0.064c0.106-0.308,0.304-0.576,0.603-0.76
			c0.163-0.101,0.374-0.169,0.603-0.127c0.229,0.041,0.446,0.191,0.572,0.412l0.063,0.158c0.08,1.102-0.575,1.994-0.889,2.791
			c0.22,0.399,0.44,0.807,0.665,1.207c0.382-0.082,1.074-0.09,1.429,0.031c0.236-0.389,0.518-0.783,0.729-1.174
			c0.003-0.062-0.044-0.162-0.095-0.285c-0.287-0.58-0.48-1.169-0.699-1.777c-0.052-0.175-0.084-0.395-0.063-0.602
			c0.021-0.211,0.109-0.435,0.286-0.604l0.096-0.064c0.257-0.115,0.538-0.102,0.762,0c0.221,0.104,0.394,0.271,0.507,0.444
			c0.227,0.347,0.344,0.745,0.444,0.921c0.011-0.02,0.051-0.039,0.063-0.064l0.062-0.062c0.139-0.148,0.264-0.443,0.477-0.73
			c0.212-0.285,0.577-0.6,1.047-0.602l0.127,0.031c0.238,0.117,0.428,0.342,0.476,0.57c0.049,0.229-0.001,0.423-0.062,0.604
			c-0.127,0.361-0.311,0.721-0.351,0.856l-0.031,0.031c-0.06,0.14-0.091,0.199-0.158,0.317c0.199,0.004,0.514-0.062,0.889-0.064
			c0.201,0,0.423,0.026,0.634,0.127c0.21,0.102,0.412,0.316,0.508,0.572v0.031c0.068,0.272-0.051,0.488-0.127,0.604l-0.095,0.094
			c-0.918,0.637-2.007,0.534-2.855,0.667c-0.234,0.399-0.465,0.801-0.698,1.206c0.333,0.393,0.632,0.928,0.666,1.269
			c0.455,0.009,0.909,0.017,1.364,0.031c0.104-0.001,0.255-0.007,0.286-0.062c0.317-0.524,0.72-0.961,1.078-1.459
			c0.262-0.301,0.624-0.599,1.11-0.636l0.158,0.033c0.252,0.091,0.46,0.28,0.539,0.507c0.081,0.226,0.062,0.417,0,0.603
			c-0.109,0.337-0.34,0.601-0.476,0.793c-0.014,0.02-0.019,0.077-0.032,0.096c-0.054,0.11-0.124,0.207-0.189,0.285
			c0.212,0.02,0.432,0.003,0.729,0.031c0.202,0.02,0.429,0.059,0.635,0.158c0.205,0.101,0.393,0.299,0.508,0.54l0.031,0.095
			C36.128,849.897,36.124,849.942,36.124,849.999z"/>
	</g>
	<g>
		<g>
			<g>
				<linearGradient id="SVGID_33_" gradientUnits="userSpaceOnUse" x1="2.4883" y1="678.0303" x2="69.8008" y2="678.0303">
					<stop  offset="0.0245" style="stop-color:#ABCF3C"/>
					<stop  offset="1" style="stop-color:#246533"/>
				</linearGradient>
				<path fill="url(#SVGID_33_)" d="M15.577,644.374h41.136c7.252,0,13.088,5.68,13.088,12.734v41.844
					c0,7.056-5.836,12.734-13.088,12.734H15.577c-7.251,0-13.089-5.679-13.089-12.734v-41.844
					C2.488,650.054,8.326,644.374,15.577,644.374z"/>
				<linearGradient id="SVGID_34_" gradientUnits="userSpaceOnUse" x1="64.606" y1="705.8057" x2="6.169" y2="648.6544">
					<stop  offset="0.0245" style="stop-color:#D3E7BC"/>
					<stop  offset="1" style="stop-color:#002206"/>
				</linearGradient>
				<path fill="url(#SVGID_34_)" d="M17.637,647.987h37.018c6.525,0,11.779,5.06,11.779,11.345v37.276
					c0,6.285-5.254,11.344-11.779,11.344H17.637c-6.527,0-11.78-5.059-11.78-11.344v-37.276
					C5.856,653.047,11.109,647.987,17.637,647.987z"/>
				
					<linearGradient id="SVGID_35_" gradientUnits="userSpaceOnUse" x1="-636.1914" y1="72.0332" x2="-525.8587" y2="-57.5317" gradientTransform="matrix(0.3932 0 0 -0.3825 264.5781 680.7139)">
					<stop  offset="0.0245" style="stop-color:#ABCF3C"/>
					<stop  offset="1" style="stop-color:#246533"/>
				</linearGradient>
				<path fill="url(#SVGID_35_)" d="M18.635,649.316h35.021c6.173,0,11.143,4.835,11.143,10.841v35.624
					c0,6.007-4.97,10.842-11.143,10.842H18.635c-6.172,0-11.144-4.835-11.144-10.842v-35.624
					C7.491,654.151,12.463,649.316,18.635,649.316z"/>
				
					<linearGradient id="SVGID_36_" gradientUnits="userSpaceOnUse" x1="-711.9829" y1="-708.9136" x2="-601.651" y2="-838.4775" gradientTransform="matrix(0.3617 0 0 -0.1603 272.2862 540.0293)">
					<stop  offset="0.0429" style="stop-color:#B3D898"/>
					<stop  offset="1" style="stop-color:#66BD5D"/>
				</linearGradient>
				<path opacity="0.8" fill="url(#SVGID_36_)" d="M20.035,651.545h32.222c5.68,0,10.15,3.943,10.21,9.552l0.042,9.924
					c0,2.518-1.45,4.543-4.335,4.543H14.021c-3.389,0.141-4.239-2.025-4.239-4.543v-9.778
					C9.782,655.8,14.355,651.545,20.035,651.545z"/>
			</g>
		</g>
		<g>
			<path fill="#FFFFFF" d="M16.805,697.358c0.097,2.162,1.865,3.873,4.05,3.873h30.449c2.185,0,3.951-1.711,4.048-3.873H16.805z"/>
			<g>
				<path fill="#FFFFFF" d="M47.176,666.706v0.873c0,0.245-6.564,0.443-7.245,0.443h-7.649c-0.681,0-8.261-0.198-8.261-0.443v-0.873
					h-7.225v28.795h38.565v-28.795H47.176z"/>
			</g>
		</g>
		<g>
			<path fill="#FFFFFF" d="M16.796,656.758v8.179h38.565v-8.179H16.796z M45.885,664.015c-1.555,0-2.82-1.266-2.82-2.819
				c0-1.555,1.266-2.819,2.82-2.819s2.819,1.265,2.819,2.819C48.704,662.749,47.439,664.015,45.885,664.015z"/>
			<path fill="#FFFFFF" d="M45.902,659.421c-0.965,0-1.75,0.786-1.75,1.75c0,0.966,0.785,1.75,1.75,1.75
				c0.966,0,1.75-0.784,1.75-1.75C47.652,660.207,46.868,659.421,45.902,659.421z"/>
		</g>
	</g>
	<g>
		<g>
			<g>
				<linearGradient id="SVGID_37_" gradientUnits="userSpaceOnUse" x1="2.4883" y1="516.9375" x2="69.8008" y2="516.9375">
					<stop  offset="0.0245" style="stop-color:#ABCF3C"/>
					<stop  offset="1" style="stop-color:#246533"/>
				</linearGradient>
				<path fill="url(#SVGID_37_)" d="M15.577,483.281h41.136c7.251,0,13.088,5.68,13.088,12.734v41.844
					c0,7.055-5.837,12.734-13.088,12.734H15.577c-7.251,0-13.089-5.68-13.089-12.734v-41.844
					C2.488,488.961,8.326,483.281,15.577,483.281z"/>
				<linearGradient id="SVGID_38_" gradientUnits="userSpaceOnUse" x1="64.606" y1="544.7119" x2="6.1705" y2="487.5622">
					<stop  offset="0.0245" style="stop-color:#D3E7BC"/>
					<stop  offset="1" style="stop-color:#002206"/>
				</linearGradient>
				<path fill="url(#SVGID_38_)" d="M17.637,486.895h37.018c6.525,0,11.778,5.059,11.778,11.344v37.277
					c0,6.285-5.253,11.344-11.778,11.344H17.637c-6.527,0-11.78-5.059-11.78-11.344v-37.277
					C5.856,491.953,11.109,486.895,17.637,486.895z"/>
				
					<linearGradient id="SVGID_39_" gradientUnits="userSpaceOnUse" x1="-636.1919" y1="493.1934" x2="-525.8584" y2="363.6275" gradientTransform="matrix(0.3932 0 0 -0.3825 264.5781 680.7139)">
					<stop  offset="0.0245" style="stop-color:#ABCF3C"/>
					<stop  offset="1" style="stop-color:#246533"/>
				</linearGradient>
				<path fill="url(#SVGID_39_)" d="M18.634,488.223h35.021c6.174,0,11.144,4.836,11.144,10.842v35.623
					c0,6.008-4.97,10.842-11.144,10.842H18.634c-6.173,0-11.143-4.834-11.143-10.842v-35.623
					C7.491,493.059,12.461,488.223,18.634,488.223z"/>
				
					<linearGradient id="SVGID_40_" gradientUnits="userSpaceOnUse" x1="-711.9849" y1="296.0366" x2="-601.6509" y2="166.4703" gradientTransform="matrix(0.3617 0 0 -0.1603 272.2862 540.0293)">
					<stop  offset="0.0429" style="stop-color:#B3D898"/>
					<stop  offset="1" style="stop-color:#66BD5D"/>
				</linearGradient>
				<path opacity="0.8" fill="url(#SVGID_40_)" d="M20.034,490.451h32.222c5.68,0,10.151,3.943,10.211,9.553l0.042,9.924
					c0,2.518-1.451,4.543-4.336,4.543H14.021c-3.39,0.141-4.239-2.025-4.239-4.543v-9.779
					C9.782,494.707,14.354,490.451,20.034,490.451z"/>
			</g>
		</g>
		<g>
			<path fill="#FFFFFF" d="M53.256,498.264c0-2.01-1.618-3.629-3.629-3.627H22.396c-2.011,0-3.629,1.617-3.629,3.627v6.678h34.489
				V498.264z M25.239,502.504c-1.35,0-2.438-1.117-2.438-2.469s1.088-2.439,2.438-2.439c1.353,0,2.439,1.088,2.439,2.439
				S26.592,502.504,25.239,502.504z M32.237,502.504c-1.351,0-2.438-1.117-2.438-2.469s1.087-2.439,2.438-2.439
				c1.353,0,2.439,1.088,2.439,2.439S33.59,502.504,32.237,502.504z"/>
			<path fill="#FFFFFF" d="M36.078,513.326c-4.817,0-8.703,3.92-8.703,8.736s3.886,8.736,8.703,8.736s8.736-3.92,8.736-8.736
				S40.895,513.326,36.078,513.326z M35.62,528.41c-3.377-0.113-6.042-3.107-5.923-6.643c0.111-3.311,2.631-5.988,5.728-6.215
				c0.205-0.016,0.409-0.008,0.62,0C32.716,518.416,32.302,524.279,35.62,528.41z"/>
			<path fill="#FFFFFF" d="M18.912,507.264l0.021,33.285h34.309l0.16-33.285H18.912z M36.13,533.805
				c-6.475,0-11.708-5.266-11.708-11.742c0-6.475,5.232-11.742,11.708-11.742c6.475,0,11.742,5.268,11.742,11.742
				C47.872,528.539,42.604,533.805,36.13,533.805z"/>
		</g>
	</g>
	<g>
		<g>
			<g>
				<linearGradient id="SVGID_41_" gradientUnits="userSpaceOnUse" x1="2.4883" y1="355.8438" x2="69.8018" y2="355.8438">
					<stop  offset="0.0245" style="stop-color:#ABCF3C"/>
					<stop  offset="1" style="stop-color:#246533"/>
				</linearGradient>
				<path fill="url(#SVGID_41_)" d="M15.577,322.188h41.136c7.252,0,13.089,5.679,13.089,12.734v41.844
					c0,7.055-5.837,12.734-13.089,12.734H15.577c-7.251,0-13.089-5.68-13.089-12.734v-41.844
					C2.488,327.866,8.326,322.188,15.577,322.188z"/>
				<linearGradient id="SVGID_42_" gradientUnits="userSpaceOnUse" x1="64.6064" y1="383.6182" x2="6.1695" y2="326.4669">
					<stop  offset="0.0245" style="stop-color:#D3E7BC"/>
					<stop  offset="1" style="stop-color:#002206"/>
				</linearGradient>
				<path fill="url(#SVGID_42_)" d="M17.637,325.801h37.019c6.525,0,11.778,5.059,11.778,11.344v37.276
					c0,6.285-5.253,11.345-11.778,11.345H17.637c-6.526,0-11.78-5.06-11.78-11.345v-37.276
					C5.856,330.859,11.11,325.801,17.637,325.801z"/>
				
					<linearGradient id="SVGID_43_" gradientUnits="userSpaceOnUse" x1="-636.1904" y1="914.3516" x2="-525.8583" y2="784.7874" gradientTransform="matrix(0.3932 0 0 -0.3825 264.5781 680.7139)">
					<stop  offset="0.0245" style="stop-color:#ABCF3C"/>
					<stop  offset="1" style="stop-color:#246533"/>
				</linearGradient>
				<path fill="url(#SVGID_43_)" d="M18.635,327.129h35.021c6.174,0,11.144,4.836,11.144,10.842v35.623
					c0,6.008-4.97,10.842-11.144,10.842H18.635c-6.172,0-11.143-4.834-11.143-10.842v-35.623
					C7.492,331.965,12.463,327.129,18.635,327.129z"/>
				
					<linearGradient id="SVGID_44_" gradientUnits="userSpaceOnUse" x1="-711.9829" y1="1300.9873" x2="-601.6503" y2="1171.4225" gradientTransform="matrix(0.3617 0 0 -0.1603 272.2862 540.0293)">
					<stop  offset="0.0429" style="stop-color:#B3D898"/>
					<stop  offset="1" style="stop-color:#66BD5D"/>
				</linearGradient>
				<path opacity="0.8" fill="url(#SVGID_44_)" d="M20.035,329.357h32.222c5.679,0,10.15,3.943,10.21,9.552l0.042,9.925
					c0,2.517-1.45,4.543-4.334,4.543H14.021c-3.389,0.141-4.239-2.026-4.239-4.543v-9.779
					C9.782,333.613,14.355,329.357,20.035,329.357z"/>
			</g>
		</g>
		<path fill="#FFFFFF" d="M21.812,333.424c-1.98,0-3.576,1.594-3.576,3.576v6.582H52.23V337c0-1.982-1.596-3.577-3.578-3.576H21.812
			z M44.091,336.342c1.332,0,2.403,1.073,2.403,2.404s-1.071,2.432-2.403,2.432s-2.403-1.101-2.403-2.432
			S42.759,336.342,44.091,336.342z"/>
		<g>
			<path fill="#FFFFFF" d="M18.584,345.226v33.704h33.76v-33.704H18.584z M48.457,358.92c-1.202-4.947-5.192-8.811-10.215-9.809
				h10.215V358.92z M44.957,362.024c0,5.12-4.164,9.284-9.283,9.284s-9.283-4.164-9.283-9.284c0-5.118,4.164-9.281,9.283-9.281
				S44.957,356.906,44.957,362.024z M22.471,349.111h10.635c-6.036,1.199-10.601,6.531-10.601,12.913
				c0,6.622,4.916,12.103,11.289,13.021H22.471V349.111z M37.555,375.045c5.34-0.77,9.646-4.744,10.902-9.914v9.914H37.555z"/>
			<circle fill="#FFFFFF" cx="35.672" cy="361.819" r="2.878"/>
		</g>
	</g>
	<g>
		<g>
			<g>
				<linearGradient id="SVGID_45_" gradientUnits="userSpaceOnUse" x1="2.4883" y1="194.75" x2="69.8018" y2="194.75">
					<stop  offset="0.0245" style="stop-color:#ABCF3C"/>
					<stop  offset="1" style="stop-color:#246533"/>
				</linearGradient>
				<path fill="url(#SVGID_45_)" d="M15.577,161.093h41.136c7.251,0,13.089,5.68,13.089,12.735v41.844
					c0,7.055-5.838,12.735-13.089,12.735H15.577c-7.251,0-13.089-5.68-13.089-12.735v-41.844
					C2.488,166.773,8.326,161.093,15.577,161.093z"/>
				<linearGradient id="SVGID_46_" gradientUnits="userSpaceOnUse" x1="64.606" y1="222.5239" x2="6.1697" y2="165.3734">
					<stop  offset="0.0245" style="stop-color:#D3E7BC"/>
					<stop  offset="1" style="stop-color:#002206"/>
				</linearGradient>
				<path fill="url(#SVGID_46_)" d="M17.637,164.707h37.018c6.525,0,11.778,5.06,11.778,11.345v37.276
					c0,6.285-5.253,11.345-11.778,11.345H17.637c-6.527,0-11.78-5.06-11.78-11.345v-37.276
					C5.857,169.766,11.11,164.707,17.637,164.707z"/>
				
					<linearGradient id="SVGID_47_" gradientUnits="userSpaceOnUse" x1="-636.1924" y1="1335.5107" x2="-525.8586" y2="1205.9446" gradientTransform="matrix(0.3932 0 0 -0.3825 264.5781 680.7139)">
					<stop  offset="0.0245" style="stop-color:#ABCF3C"/>
					<stop  offset="1" style="stop-color:#246533"/>
				</linearGradient>
				<path fill="url(#SVGID_47_)" d="M18.635,166.036h35.021c6.174,0,11.144,4.835,11.144,10.842v35.624
					c0,6.007-4.97,10.842-11.144,10.842H18.635c-6.173,0-11.143-4.835-11.143-10.842v-35.624
					C7.492,170.871,12.462,166.036,18.635,166.036z"/>
				
					<linearGradient id="SVGID_48_" gradientUnits="userSpaceOnUse" x1="-711.9824" y1="2305.9346" x2="-601.6514" y2="2176.3716" gradientTransform="matrix(0.3617 0 0 -0.1603 272.2862 540.0293)">
					<stop  offset="0.0429" style="stop-color:#B3D898"/>
					<stop  offset="1" style="stop-color:#66BD5D"/>
				</linearGradient>
				<path opacity="0.8" fill="url(#SVGID_48_)" d="M20.035,168.265h32.222c5.68,0,10.151,3.943,10.21,9.551l0.042,9.924
					c0,2.517-1.451,4.543-4.335,4.543H14.022c-3.39,0.14-4.24-2.026-4.24-4.543v-9.778C9.782,172.519,14.355,168.265,20.035,168.265
					z"/>
			</g>
		</g>
		<g>
			<g>
				<g>
					<path fill="#FFFFFF" d="M24.151,205.873c0,0.38-0.301,0.689-0.67,0.689h-8.393c-0.367,0-0.668-0.31-0.668-0.689v-4.454
						c0-0.379,0.301-0.688,0.668-0.688h8.393c0.369,0,0.67,0.309,0.67,0.688V205.873z"/>
				</g>
			</g>
			<path fill="#FFFFFF" stroke="#FFFFFF" stroke-width="0.39" d="M59.128,180.873c-2.476,0-4.491,1.526-4.491,3.401v1.244h-8.7
				c-0.714-0.975-1.665-1.762-2.772-2.275v-6.107c1.111,0.012,1.895,0.032,1.953,0.059c1.084,0.499,1.846,1.105,3.17,1.105
				c2.1,0,3.803-1.458,3.803-3.256c0-1.798-1.703-3.256-3.803-3.256c-1.337,0-2.097,0.508-3.192,1.018
				c-0.057,0.027-0.832,0.045-1.931,0.058v-1.154h-5.962v1.158c-1.391-0.01-2.424-0.032-2.49-0.062
				c-1.095-0.509-1.853-1.018-3.191-1.018c-2.099,0-3.802,1.458-3.802,3.256c0,1.799,1.703,3.256,3.802,3.256
				c1.324,0,2.085-0.606,3.169-1.105c0.068-0.031,1.111-0.052,2.512-0.063v6.07c-1.446,0.647-2.642,1.756-3.392,3.143H22.833
				c-3.905,0-7.099,3.379-7.099,7.507v2.361c0,0.5,0.001,3.261,0.003,4.817h7.249c0-1.715,0-4.653,0-5.058
				c0-2.789,2.197-2.387,7.454-2.387h3.618c1.273,2.021,3.518,3.367,6.083,3.367c2.288,0,4.321-1.072,5.638-2.736h8.859v0.821
				c0,1.875,2.016,3.4,4.491,3.4h3.506v-17.562H59.128z"/>
			<circle fill-rule="evenodd" clip-rule="evenodd" fill="#FFFFFF" cx="18.921" cy="211.845" r="1.886"/>
			<circle fill-rule="evenodd" clip-rule="evenodd" fill="#FFFFFF" cx="18.921" cy="218.043" r="1.886"/>
		</g>
	</g>
	<g>
		<g>
			<g>
				<linearGradient id="SVGID_49_" gradientUnits="userSpaceOnUse" x1="2.4883" y1="2288.9658" x2="69.8013" y2="2288.9658">
					<stop  offset="0.0245" style="stop-color:#ABCF3C"/>
					<stop  offset="1" style="stop-color:#246533"/>
				</linearGradient>
				<path fill="url(#SVGID_49_)" d="M15.577,2255.309h41.135c7.251,0,13.089,5.68,13.089,12.736v41.844
					c0,7.055-5.837,12.734-13.089,12.734H15.577c-7.251,0-13.089-5.68-13.089-12.734v-41.844
					C2.488,2260.988,8.326,2255.309,15.577,2255.309z"/>
				<linearGradient id="SVGID_50_" gradientUnits="userSpaceOnUse" x1="64.606" y1="2316.7402" x2="6.1705" y2="2259.5906">
					<stop  offset="0.0245" style="stop-color:#D3E7BC"/>
					<stop  offset="1" style="stop-color:#002206"/>
				</linearGradient>
				<path fill="url(#SVGID_50_)" d="M17.636,2258.922h37.019c6.524,0,11.778,5.061,11.778,11.346v37.275
					c0,6.285-5.254,11.346-11.778,11.346H17.636c-6.526,0-11.78-5.061-11.78-11.346v-37.275
					C5.856,2263.982,11.11,2258.922,17.636,2258.922z"/>
				
					<linearGradient id="SVGID_51_" gradientUnits="userSpaceOnUse" x1="-636.1914" y1="-4139.5649" x2="-525.8585" y2="-4269.1299" gradientTransform="matrix(0.3932 0 0 -0.3825 264.5781 680.7139)">
					<stop  offset="0.0245" style="stop-color:#ABCF3C"/>
					<stop  offset="1" style="stop-color:#246533"/>
				</linearGradient>
				<path fill="url(#SVGID_51_)" d="M18.634,2260.252h35.021c6.174,0,11.143,4.836,11.143,10.842v35.623
					c0,6.008-4.969,10.842-11.143,10.842H18.634c-6.172,0-11.142-4.834-11.142-10.842v-35.623
					C7.492,2265.088,12.462,2260.252,18.634,2260.252z"/>
				
					<linearGradient id="SVGID_52_" gradientUnits="userSpaceOnUse" x1="-711.9829" y1="-10758.418" x2="-601.6495" y2="-10887.9834" gradientTransform="matrix(0.3617 0 0 -0.1603 272.2862 540.0293)">
					<stop  offset="0.0429" style="stop-color:#B3D898"/>
					<stop  offset="1" style="stop-color:#66BD5D"/>
				</linearGradient>
				<path opacity="0.8" fill="url(#SVGID_52_)" d="M20.035,2262.48h32.222c5.68,0,10.151,3.943,10.21,9.551l0.042,9.924
					c0,2.518-1.451,4.545-4.334,4.545H14.021c-3.389,0.139-4.24-2.027-4.24-4.545v-9.777
					C9.782,2266.734,14.355,2262.48,20.035,2262.48z"/>
			</g>
		</g>
		<path fill="#FFFFFF" d="M36.334,2315.467c-14.058,0-25.495-11.438-25.495-25.494s11.437-25.494,25.495-25.494
			c14.058,0,25.494,11.438,25.494,25.494S50.392,2315.467,36.334,2315.467z M36.334,2267.312c-12.495,0-22.661,10.166-22.661,22.66
			s10.166,22.66,22.661,22.66c12.494,0,22.66-10.166,22.66-22.66S48.828,2267.312,36.334,2267.312z"/>
		<path fill="#FFFFFF" d="M56.856,2292.4c-3.293-3.916-7.611-6.072-12.159-6.072c-1.638,0-3.285,0.283-4.888,0.828
			c3.02-2.33,6.493-3.582,10.078-3.582c1.9,0,3.803,0.346,5.655,1.027l1.25,0.461l-0.372-1.277
			c-0.682-2.348-1.762-4.537-3.209-6.514l-0.18-0.248l-0.305-0.025c-0.578-0.051-1.156-0.076-1.723-0.076
			c-3.913,0-7.429,1.199-10.17,3.471c-1.616,1.338-2.918,3.014-3.868,4.949c0.748-5.818,4.055-10.496,9.316-12.928l1.208-0.559
			l-1.167-0.641c-2.145-1.178-4.457-1.963-6.872-2.338l-0.304-0.045l-0.232,0.195c-3.322,2.791-5.368,6.277-5.923,10.076
			c-0.34,2.33-0.109,4.68,0.665,6.955c-3.575-4.641-4.542-10.283-2.54-15.715l0.458-1.25l-1.278,0.371
			c-2.341,0.684-4.535,1.762-6.514,3.209l-0.245,0.18l-0.026,0.305c-0.373,4.322,0.644,8.234,2.939,11.314
			c1.409,1.889,3.24,3.391,5.403,4.453c-5.855-0.738-10.487-4.045-12.925-9.324l-0.559-1.207l-0.641,1.166
			c-1.177,2.145-1.965,4.457-2.339,6.871l-0.046,0.303l0.196,0.234c3.293,3.916,7.613,6.072,12.16,6.072
			c1.639,0,3.287-0.283,4.89-0.832c-3.02,2.334-6.493,3.586-10.078,3.586c-1.901,0-3.803-0.346-5.655-1.029l-1.25-0.459l0.372,1.279
			c0.683,2.342,1.763,4.533,3.208,6.512l0.18,0.248l0.306,0.025c0.577,0.051,1.157,0.074,1.722,0.074
			c3.913,0,7.43-1.197,10.169-3.469c1.616-1.34,2.918-3.016,3.869-4.951c-0.747,5.818-4.054,10.498-9.317,12.928l-1.208,0.559
			l1.166,0.643c2.145,1.176,4.457,1.963,6.871,2.338l0.303,0.047l0.232-0.195c3.321-2.795,5.369-6.279,5.924-10.082
			c0.338-2.326,0.108-4.676-0.667-6.949c3.578,4.639,4.543,10.279,2.542,15.713l-0.46,1.25l1.279-0.373
			c2.344-0.682,4.535-1.762,6.513-3.207l0.249-0.182l0.024-0.305c0.375-4.322-0.644-8.232-2.941-11.312
			c-1.41-1.891-3.239-3.393-5.404-4.455c5.857,0.738,10.489,4.045,12.927,9.324l0.559,1.207l0.639-1.166
			c1.178-2.145,1.966-4.457,2.341-6.871l0.046-0.301L56.856,2292.4z M36.652,2292.537c-1.45,0-2.626-1.176-2.626-2.627
			s1.176-2.627,2.626-2.627c1.451,0,2.627,1.176,2.627,2.627S38.104,2292.537,36.652,2292.537z"/>
	</g>
	<g>
		<g>
			<g>
				<linearGradient id="SVGID_53_" gradientUnits="userSpaceOnUse" x1="2.4883" y1="1966.7793" x2="69.8018" y2="1966.7793">
					<stop  offset="0.0245" style="stop-color:#ABCF3C"/>
					<stop  offset="1" style="stop-color:#246533"/>
				</linearGradient>
				<path fill="url(#SVGID_53_)" d="M15.577,1933.122h41.135c7.252,0,13.089,5.68,13.089,12.735v41.844
					c0,7.055-5.837,12.734-13.089,12.734H15.577c-7.251,0-13.089-5.68-13.089-12.734v-41.844
					C2.488,1938.802,8.326,1933.122,15.577,1933.122z"/>
				<linearGradient id="SVGID_54_" gradientUnits="userSpaceOnUse" x1="64.6064" y1="1994.5527" x2="6.171" y2="1937.403">
					<stop  offset="0.0245" style="stop-color:#D3E7BC"/>
					<stop  offset="1" style="stop-color:#002206"/>
				</linearGradient>
				<path fill="url(#SVGID_54_)" d="M17.637,1936.735h37.018c6.525,0,11.778,5.06,11.778,11.345v37.276
					c0,6.284-5.253,11.345-11.778,11.345H17.637c-6.527,0-11.78-5.061-11.78-11.345v-37.276
					C5.857,1941.795,11.11,1936.735,17.637,1936.735z"/>
				
					<linearGradient id="SVGID_55_" gradientUnits="userSpaceOnUse" x1="-636.1904" y1="-3297.2446" x2="-525.857" y2="-3426.8103" gradientTransform="matrix(0.3932 0 0 -0.3825 264.5781 680.7139)">
					<stop  offset="0.0245" style="stop-color:#ABCF3C"/>
					<stop  offset="1" style="stop-color:#246533"/>
				</linearGradient>
				<path fill="url(#SVGID_55_)" d="M18.634,1938.064h35.021c6.174,0,11.143,4.836,11.143,10.842v35.623
					c0,6.008-4.969,10.842-11.143,10.842H18.634c-6.172,0-11.143-4.834-11.143-10.842v-35.623
					C7.492,1942.9,12.462,1938.064,18.634,1938.064z"/>
				
					<linearGradient id="SVGID_56_" gradientUnits="userSpaceOnUse" x1="-711.9824" y1="-8748.5156" x2="-601.6494" y2="-8878.0811" gradientTransform="matrix(0.3617 0 0 -0.1603 272.2862 540.0293)">
					<stop  offset="0.0429" style="stop-color:#B3D898"/>
					<stop  offset="1" style="stop-color:#66BD5D"/>
				</linearGradient>
				<path opacity="0.8" fill="url(#SVGID_56_)" d="M20.035,1940.293h32.221c5.68,0,10.151,3.943,10.211,9.552l0.041,9.924
					c0,2.517-1.45,4.544-4.334,4.544H14.022c-3.389,0.14-4.24-2.027-4.24-4.544v-9.778
					C9.782,1944.548,14.355,1940.293,20.035,1940.293z"/>
			</g>
		</g>
		<path fill="#FFFFFF" d="M55.312,1947.078v1.684h-1.274c-0.63,0-1.142,0.486-1.142,1.083s0.512,1.081,1.142,1.081h1.274v1.303
			l5.713-0.559v-4.031L55.312,1947.078z"/>
		<g>
			<path fill="#FFFFFF" d="M39.579,1951.404v36.516c0.07,0.055,0.262,0.145,0.557,0.145c0.294,0,0.485-0.09,0.556-0.145v-36.516
				c-0.07-0.055-0.262-0.146-0.556-0.146C39.84,1951.259,39.649,1951.35,39.579,1951.404z"/>
			<path fill="#FFFFFF" d="M32.894,1951.404v36.516c0.07,0.055,0.262,0.145,0.556,0.145c0.295,0,0.486-0.09,0.557-0.145v-36.516
				c-0.071-0.055-0.262-0.146-0.557-0.146C33.155,1951.259,32.963,1951.35,32.894,1951.404z"/>
			<path fill="#FFFFFF" d="M26.209,1951.404v36.516c0.07,0.055,0.262,0.145,0.557,0.145c0.295,0,0.486-0.09,0.555-0.145v-36.516
				c-0.069-0.055-0.26-0.146-0.555-0.146C26.471,1951.259,26.279,1951.35,26.209,1951.404z"/>
			<path fill="#FFFFFF" d="M19.524,1951.404v36.516c0.071,0.055,0.262,0.145,0.557,0.145c0.294,0,0.486-0.09,0.557-0.145v-36.516
				c-0.071-0.055-0.263-0.146-0.557-0.146C19.786,1951.259,19.595,1951.35,19.524,1951.404z"/>
			<path fill="#FFFFFF" d="M46.263,1951.404v36.516c0.07,0.055,0.261,0.145,0.557,0.145s0.486-0.09,0.557-0.145v-36.516
				c-0.071-0.055-0.261-0.146-0.557-0.146S46.333,1951.35,46.263,1951.404z"/>
		</g>
		<path fill="#FFFFFF" d="M51.332,1946.713H15.92c-0.922,0-1.666,1.309-1.666,2.923v38.827c0,1.613,0.744,2.922,1.666,2.922h29.639
			v3.699c0,0.016,0.004,0.03,0.005,0.046h2.056c0.001-0.016,0.005-0.03,0.005-0.046v-3.699h3.707c0.922,0,1.667-1.309,1.667-2.922
			v-38.827C52.999,1948.021,52.254,1946.713,51.332,1946.713z M22.364,1987.99c0,0.961-1.002,1.711-2.283,1.711
			c-1.281,0-2.285-0.75-2.285-1.711v-36.657c0-0.96,1.003-1.712,2.285-1.712c1.28,0,2.283,0.752,2.283,1.712V1987.99z
			 M29.05,1987.99c0,0.961-1.004,1.711-2.284,1.711c-1.281,0-2.285-0.75-2.285-1.711v-36.657c0-0.96,1.003-1.712,2.285-1.712
			c1.279,0,2.284,0.752,2.284,1.712V1987.99z M35.734,1987.99c0,0.961-1.003,1.711-2.284,1.711c-1.28,0-2.283-0.75-2.283-1.711
			v-36.657c0-0.96,1.003-1.712,2.283-1.712c1.281,0,2.284,0.752,2.284,1.712V1987.99z M42.419,1987.99
			c0,0.961-1.004,1.711-2.284,1.711c-1.281,0-2.284-0.75-2.284-1.711v-36.657c0-0.96,1.003-1.712,2.284-1.712
			c1.28,0,2.284,0.752,2.284,1.712V1987.99z M49.103,1987.99c0,0.961-1.002,1.711-2.283,1.711c-1.281,0-2.284-0.75-2.284-1.711
			v-36.657c0-0.96,1.003-1.712,2.284-1.712c1.281,0,2.283,0.752,2.283,1.712V1987.99z"/>
	</g>
	<g>
		<g>
			<g>
				<linearGradient id="SVGID_57_" gradientUnits="userSpaceOnUse" x1="2.4883" y1="1805.6855" x2="69.8013" y2="1805.6855">
					<stop  offset="0.0245" style="stop-color:#ABCF3C"/>
					<stop  offset="1" style="stop-color:#246533"/>
				</linearGradient>
				<path fill="url(#SVGID_57_)" d="M15.577,1772.028h41.136c7.252,0,13.089,5.68,13.089,12.736v41.844
					c0,7.055-5.837,12.734-13.089,12.734H15.577c-7.251,0-13.088-5.68-13.088-12.734v-41.844
					C2.488,1777.708,8.326,1772.028,15.577,1772.028z"/>
				<linearGradient id="SVGID_58_" gradientUnits="userSpaceOnUse" x1="64.6064" y1="1833.46" x2="6.1702" y2="1776.3094">
					<stop  offset="0.0245" style="stop-color:#D3E7BC"/>
					<stop  offset="1" style="stop-color:#002206"/>
				</linearGradient>
				<path fill="url(#SVGID_58_)" d="M17.637,1775.642h37.018c6.524,0,11.777,5.061,11.777,11.346v37.275
					c0,6.285-5.253,11.346-11.777,11.346H17.637c-6.527,0-11.78-5.061-11.78-11.346v-37.275
					C5.857,1780.702,11.11,1775.642,17.637,1775.642z"/>
				
					<linearGradient id="SVGID_59_" gradientUnits="userSpaceOnUse" x1="-636.1919" y1="-2876.0859" x2="-525.8574" y2="-3005.6528" gradientTransform="matrix(0.3932 0 0 -0.3825 264.5781 680.7139)">
					<stop  offset="0.0245" style="stop-color:#ABCF3C"/>
					<stop  offset="1" style="stop-color:#246533"/>
				</linearGradient>
				<path fill="url(#SVGID_59_)" d="M18.634,1776.972h35.021c6.175,0,11.145,4.836,11.145,10.842v35.623
					c0,6.008-4.97,10.842-11.145,10.842H18.634c-6.173,0-11.143-4.834-11.143-10.842v-35.623
					C7.492,1781.808,12.461,1776.972,18.634,1776.972z"/>
				
					<linearGradient id="SVGID_60_" gradientUnits="userSpaceOnUse" x1="-711.9819" y1="-7743.5688" x2="-601.6486" y2="-7873.1343" gradientTransform="matrix(0.3617 0 0 -0.1603 272.2862 540.0293)">
					<stop  offset="0.0429" style="stop-color:#B3D898"/>
					<stop  offset="1" style="stop-color:#66BD5D"/>
				</linearGradient>
				<path opacity="0.8" fill="url(#SVGID_60_)" d="M20.035,1779.2h32.222c5.68,0,10.151,3.943,10.211,9.551l0.041,9.924
					c0,2.518-1.45,4.545-4.334,4.545H14.022c-3.389,0.139-4.24-2.027-4.24-4.545v-9.777C9.782,1783.454,14.355,1779.2,20.035,1779.2
					z"/>
			</g>
		</g>
		<g>
			<g>
				<path fill="#FFFFFF" d="M24.176,1804.425v8.725c3.298-4.225,10.289-9.176,22.027-11.076H27.251
					C25.56,1802.073,24.176,1803.106,24.176,1804.425z"/>
				<path fill="#FFFFFF" d="M47.174,1795.14v0.875c0,0.244-6.564,0.441-7.244,0.441h-7.65c-0.68,0-8.26-0.197-8.26-0.441v-0.875
					h-7.225v24.381h38.565v-24.381H47.174z M50.778,1812.872c0,1.549-1.578,2.814-3.537,2.814H25.251
					c-1.958,0-3.536-1.266-3.536-2.814v-10.242c0-1.551,1.578-2.785,3.536-2.785h21.989c1.959,0,3.537,1.234,3.537,2.785V1812.872z"
					/>
			</g>
			<path fill="#FFFFFF" d="M16.795,1785.192v8.18h38.565v-8.18H16.795z M16.795,1821.329v8.178h38.565v-8.178H16.795z
				 M23.949,1791.673c-0.993,0-1.802-0.811-1.802-1.803s0.809-1.801,1.802-1.801s1.771,0.809,1.771,1.801
				C25.72,1790.864,24.942,1791.673,23.949,1791.673z M29.853,1791.673c-0.992,0-1.801-0.811-1.801-1.803s0.809-1.801,1.801-1.801
				c0.994,0,1.771,0.809,1.771,1.801C31.625,1790.864,30.847,1791.673,29.853,1791.673z M35.758,1791.673
				c-0.992,0-1.801-0.811-1.801-1.803s0.809-1.801,1.801-1.801c0.994,0,1.772,0.809,1.772,1.801
				C37.531,1790.864,36.752,1791.673,35.758,1791.673z M41.664,1791.673c-0.993,0-1.801-0.811-1.801-1.803s0.808-1.801,1.801-1.801
				c0.994,0,1.771,0.809,1.771,1.801C43.435,1790.864,42.658,1791.673,41.664,1791.673z M47.57,1791.673
				c-0.993,0-1.802-0.811-1.802-1.803s0.809-1.801,1.802-1.801s1.771,0.809,1.771,1.801
				C49.34,1790.864,48.563,1791.673,47.57,1791.673z"/>
		</g>
	</g>
	<g>
		<g>
			<g>
				<linearGradient id="SVGID_61_" gradientUnits="userSpaceOnUse" x1="2.4883" y1="1644.5918" x2="69.8018" y2="1644.5918">
					<stop  offset="0.0245" style="stop-color:#ABCF3C"/>
					<stop  offset="1" style="stop-color:#246533"/>
				</linearGradient>
				<path fill="url(#SVGID_61_)" d="M15.577,1610.935h41.135c7.252,0,13.09,5.68,13.09,12.735v41.844
					c0,7.056-5.838,12.735-13.09,12.735H15.577c-7.251,0-13.089-5.68-13.089-12.735v-41.844
					C2.488,1616.614,8.326,1610.935,15.577,1610.935z"/>
				<linearGradient id="SVGID_62_" gradientUnits="userSpaceOnUse" x1="64.605" y1="1672.3662" x2="6.1695" y2="1615.2164">
					<stop  offset="0.0245" style="stop-color:#D3E7BC"/>
					<stop  offset="1" style="stop-color:#002206"/>
				</linearGradient>
				<path fill="url(#SVGID_62_)" d="M17.636,1614.548h37.019c6.525,0,11.778,5.061,11.778,11.346v37.275
					c0,6.285-5.253,11.346-11.778,11.346H17.636c-6.525,0-11.779-5.061-11.779-11.346v-37.275
					C5.856,1619.608,11.11,1614.548,17.636,1614.548z"/>
				
					<linearGradient id="SVGID_63_" gradientUnits="userSpaceOnUse" x1="-636.1914" y1="-2454.9253" x2="-525.858" y2="-2584.491" gradientTransform="matrix(0.3932 0 0 -0.3825 264.5781 680.7139)">
					<stop  offset="0.0245" style="stop-color:#ABCF3C"/>
					<stop  offset="1" style="stop-color:#246533"/>
				</linearGradient>
				<path fill="url(#SVGID_63_)" d="M18.634,1615.878h35.021c6.174,0,11.144,4.835,11.144,10.842v35.623
					c0,6.007-4.97,10.842-11.144,10.842H18.634c-6.172,0-11.142-4.835-11.142-10.842v-35.623
					C7.492,1620.713,12.462,1615.878,18.634,1615.878z"/>
				
					<linearGradient id="SVGID_64_" gradientUnits="userSpaceOnUse" x1="-711.9814" y1="-6738.6172" x2="-601.6524" y2="-6868.1777" gradientTransform="matrix(0.3617 0 0 -0.1603 272.2862 540.0293)">
					<stop  offset="0.0429" style="stop-color:#B3D898"/>
					<stop  offset="1" style="stop-color:#66BD5D"/>
				</linearGradient>
				<path opacity="0.8" fill="url(#SVGID_64_)" d="M20.035,1618.106h32.221c5.68,0,10.151,3.943,10.212,9.551l0.04,9.924
					c0,2.518-1.45,4.544-4.334,4.544H14.022c-3.39,0.14-4.24-2.026-4.24-4.544v-9.777
					C9.782,1622.36,14.355,1618.106,20.035,1618.106z"/>
			</g>
		</g>
		<path fill="#FFFFFF" d="M16.772,1631.744c-1.488,0-2.687,1.197-2.687,2.685v25.719c0,1.489,1.198,2.688,2.687,2.688h38.312
			c1.488,0,2.687-1.198,2.687-2.688v-25.719c0-1.487-1.198-2.685-2.687-2.685H16.772z M21.895,1637.313h21.017
			c1.87-0.002,3.386,1.557,3.386,3.497v12.817c0,1.941-1.516,3.498-3.386,3.498H21.895c-1.871,0-3.358-1.557-3.358-3.498v-12.817
			C18.536,1638.87,20.023,1637.312,21.895,1637.313z M52.229,1638.601c1.303,0,2.352,1.047,2.352,2.35s-1.049,2.379-2.352,2.379
			s-2.379-1.076-2.379-2.379S50.927,1638.601,52.229,1638.601z M23.041,1638.852c-1.667,0-2.995,1.298-2.995,2.938v10.83
			c0,1.641,1.327,2.967,2.995,2.967h18.723c1.667,0,3.022-1.326,3.022-2.967v-10.83c-0.001-1.639-1.355-2.938-3.022-2.938H23.041z
			 M24.749,1641.202h16.146c-9.992,2.011-15.939,7.229-18.749,11.699v-9.208C22.146,1642.299,23.31,1641.202,24.749,1641.202z
			 M52.229,1649.99c1.303,0,2.352,1.075,2.352,2.378s-1.049,2.352-2.352,2.352s-2.379-1.049-2.379-2.352
			S50.927,1649.99,52.229,1649.99z"/>
	</g>
	<g>
		<g>
			<g>
				<linearGradient id="SVGID_65_" gradientUnits="userSpaceOnUse" x1="2.4883" y1="1483.499" x2="69.8018" y2="1483.499">
					<stop  offset="0.0245" style="stop-color:#ABCF3C"/>
					<stop  offset="1" style="stop-color:#246533"/>
				</linearGradient>
				<path fill="url(#SVGID_65_)" d="M15.577,1449.842h41.135c7.252,0,13.09,5.68,13.09,12.734v41.844
					c0,7.057-5.838,12.736-13.09,12.736H15.577c-7.251,0-13.089-5.68-13.089-12.736v-41.844
					C2.488,1455.521,8.326,1449.842,15.577,1449.842z"/>
				<linearGradient id="SVGID_66_" gradientUnits="userSpaceOnUse" x1="64.606" y1="1511.2734" x2="6.169" y2="1454.1222">
					<stop  offset="0.0245" style="stop-color:#D3E7BC"/>
					<stop  offset="1" style="stop-color:#002206"/>
				</linearGradient>
				<path fill="url(#SVGID_66_)" d="M17.637,1453.455h37.018c6.524,0,11.779,5.061,11.779,11.346v37.275
					c0,6.285-5.255,11.346-11.779,11.346H17.637c-6.527,0-11.78-5.061-11.78-11.346v-37.275
					C5.856,1458.516,11.109,1453.455,17.637,1453.455z"/>
				
					<linearGradient id="SVGID_67_" gradientUnits="userSpaceOnUse" x1="-636.1904" y1="-2033.7676" x2="-525.8577" y2="-2163.3325" gradientTransform="matrix(0.3932 0 0 -0.3825 264.5781 680.7139)">
					<stop  offset="0.0245" style="stop-color:#ABCF3C"/>
					<stop  offset="1" style="stop-color:#246533"/>
				</linearGradient>
				<path fill="url(#SVGID_67_)" d="M18.635,1454.785h35.021c6.174,0,11.143,4.834,11.143,10.842v35.623
					c0,6.006-4.969,10.842-11.143,10.842H18.635c-6.173,0-11.143-4.836-11.143-10.842v-35.623
					C7.492,1459.619,12.462,1454.785,18.635,1454.785z"/>
				
					<linearGradient id="SVGID_68_" gradientUnits="userSpaceOnUse" x1="-711.9824" y1="-5733.6699" x2="-601.6544" y2="-5863.2295" gradientTransform="matrix(0.3617 0 0 -0.1603 272.2862 540.0293)">
					<stop  offset="0.0429" style="stop-color:#B3D898"/>
					<stop  offset="1" style="stop-color:#66BD5D"/>
				</linearGradient>
				<path opacity="0.8" fill="url(#SVGID_68_)" d="M20.034,1457.014h32.222c5.68,0,10.151,3.943,10.211,9.551l0.041,9.924
					c0,2.518-1.45,4.543-4.334,4.543H14.021c-3.39,0.141-4.239-2.025-4.239-4.543v-9.777
					C9.782,1461.268,14.355,1457.014,20.034,1457.014z"/>
			</g>
		</g>
		<rect x="27.411" y="1456.783" fill-rule="evenodd" clip-rule="evenodd" fill="#FFFFFF" width="15.969" height="19.816"/>
		<path fill-rule="evenodd" clip-rule="evenodd" fill="#FFFFFF" d="M56.856,1487.471l-13.477-8.773H27.411l-13.318,8.773h-2.217
			v5.197h47.438v-5.197H56.856z M22.479,1490.957c-0.903,0-1.634-0.732-1.634-1.635s0.73-1.633,1.634-1.633
			c0.902,0,1.633,0.73,1.633,1.633S23.381,1490.957,22.479,1490.957z M30.972,1490.957c-0.901,0-1.634-0.732-1.634-1.635
			s0.732-1.633,1.634-1.633s1.633,0.73,1.633,1.633S31.873,1490.957,30.972,1490.957z M39.464,1490.957
			c-0.901,0-1.632-0.732-1.632-1.635s0.73-1.633,1.632-1.633c0.903,0,1.635,0.73,1.635,1.633S40.367,1490.957,39.464,1490.957z
			 M47.958,1490.957c-0.901,0-1.634-0.732-1.634-1.635s0.732-1.633,1.634-1.633c0.902,0,1.633,0.73,1.633,1.633
			S48.86,1490.957,47.958,1490.957z"/>
		<path fill-rule="evenodd" clip-rule="evenodd" fill="#FFFFFF" d="M34.454,1491.225"/>
	</g>
	<g>
		<g>
			<g>
				<linearGradient id="SVGID_69_" gradientUnits="userSpaceOnUse" x1="2.4883" y1="1322.4053" x2="69.8018" y2="1322.4053">
					<stop  offset="0.0245" style="stop-color:#ABCF3C"/>
					<stop  offset="1" style="stop-color:#246533"/>
				</linearGradient>
				<path fill="url(#SVGID_69_)" d="M15.577,1288.749h41.135c7.252,0,13.089,5.68,13.089,12.734v41.844
					c0,7.055-5.837,12.734-13.089,12.734H15.577c-7.251,0-13.089-5.68-13.089-12.734v-41.844
					C2.488,1294.429,8.326,1288.749,15.577,1288.749z"/>
				<linearGradient id="SVGID_70_" gradientUnits="userSpaceOnUse" x1="64.606" y1="1350.1797" x2="6.1697" y2="1293.0292">
					<stop  offset="0.0245" style="stop-color:#D3E7BC"/>
					<stop  offset="1" style="stop-color:#002206"/>
				</linearGradient>
				<path fill="url(#SVGID_70_)" d="M17.637,1292.362h37.018c6.525,0,11.779,5.059,11.779,11.344v37.277
					c0,6.284-5.253,11.344-11.779,11.344H17.637c-6.527,0-11.78-5.06-11.78-11.344v-37.277
					C5.856,1297.421,11.11,1292.362,17.637,1292.362z"/>
				
					<linearGradient id="SVGID_71_" gradientUnits="userSpaceOnUse" x1="-636.1919" y1="-1612.6069" x2="-525.858" y2="-1742.1732" gradientTransform="matrix(0.3932 0 0 -0.3825 264.5781 680.7139)">
					<stop  offset="0.0245" style="stop-color:#ABCF3C"/>
					<stop  offset="1" style="stop-color:#246533"/>
				</linearGradient>
				<path fill="url(#SVGID_71_)" d="M18.634,1293.69h35.021c6.173,0,11.144,4.836,11.144,10.842v35.624
					c0,6.007-4.97,10.842-11.144,10.842H18.634c-6.172,0-11.143-4.835-11.143-10.842v-35.624
					C7.492,1298.526,12.462,1293.69,18.634,1293.69z"/>
				
					<linearGradient id="SVGID_72_" gradientUnits="userSpaceOnUse" x1="-711.9819" y1="-4728.7212" x2="-601.6529" y2="-4858.2817" gradientTransform="matrix(0.3617 0 0 -0.1603 272.2862 540.0293)">
					<stop  offset="0.0429" style="stop-color:#B3D898"/>
					<stop  offset="1" style="stop-color:#66BD5D"/>
				</linearGradient>
				<path opacity="0.8" fill="url(#SVGID_72_)" d="M20.035,1295.92h32.222c5.679,0,10.151,3.942,10.21,9.552l0.042,9.924
					c0,2.517-1.45,4.543-4.334,4.543H14.021c-3.389,0.141-4.239-2.026-4.239-4.543v-9.778
					C9.782,1300.175,14.355,1295.92,20.035,1295.92z"/>
			</g>
		</g>
		<path fill="#FFFFFF" d="M58.913,1304.699c-4.982-3.489-20.143-14.103-37.619-4.149c-13.858,7.893-16.177,17.763-6.893,29.335
			c0.503,0.626,0.97,1.2,1.406,1.726l-1.738,1.041l3.336,3.455c-0.605,0.626-0.766,1.336-0.329,1.787l0.968,1.004l2.317,2.403
			l3.877,4.017l0.997-0.598l1.013,1.047l5.83-3.498l-1.012-1.049l0.92-0.552l-7.165-7.425c-0.414-0.428-1.311-0.468-2.181-0.227
			l-3.368-3.488l-1.837,1.102c-0.408-0.493-0.847-1.031-1.328-1.629c-4.508-5.619-6.163-10.706-4.949-15.326
			c0.048,0.924,0.209,1.896,0.48,2.912c-0.201,1.18-0.102,2.323,0.344,3.365c1.155,2.701,6.434,8.309,30.49,2.067
			c4.409-1.143,7.625-2.404,9.957-3.681c-0.104,3.379-0.713,6.658-1.283,9.045l-0.938-0.077l-1.194,4.495
			c-0.743,0.16-1.359,0.626-1.517,1.215l-0.346,1.306l-0.831,3.126l-1.388,5.227l0.895,0.074l-0.967,3.638l5.229,0.431l0.967-3.638
			l0.826,0.067l2.567-9.66c0.147-0.557-0.212-1.072-0.777-1.357l1.207-4.539l-1.793-0.146c0.701-2.896,1.376-6.678,1.361-10.461
			c2.327-1.666,3.319-3.297,3.663-4.672c1.046-0.787,1.846-1.597,2.343-2.41C61.279,1308.651,61.68,1306.636,58.913,1304.699z
			 M15.294,1307.455c2.169-2.151,5.805-3.372,9.866-4.097c2.153-0.385,4.425-0.631,6.661-0.803c-2.619,0.612-5.454,1.496-8.5,2.646
			c-4.563,1.727-8.237,4.67-10.206,7.771C13.1,1310.758,13.83,1308.909,15.294,1307.455z M52.435,1316.531
			c-2.41,1.516-5.915,2.891-10.42,4.061c-14.965,3.883-25.269,3.606-27.874-0.696c1.937,1.123,4.962,1.732,8.98,1.785
			c8.684,0.115,21.05-2.49,29.27-6.086C52.412,1315.907,52.425,1316.218,52.435,1316.531z M52.241,1314.014
			c-7.512,3.45-19.699,6.276-28.891,6.153c-3.923-0.052-8.777-0.693-9.615-3.462c-0.031-0.101-0.062-0.204-0.091-0.307
			c0.776-3.636,4.925-7.778,10.402-9.851c10.455-3.954,18.125-4.589,22.795-1.89C50.228,1306.614,51.738,1310.15,52.241,1314.014z
			 M54.369,1315.069c-0.009-0.129-0.02-0.256-0.031-0.383c0.264-0.133,0.522-0.266,0.774-0.4
			C54.895,1314.551,54.646,1314.812,54.369,1315.069z M56.266,1311.791c-0.624,0.431-1.34,0.861-2.129,1.284
			c-0.571-3.526-2-6.758-4.88-8.912c3.833,1.65,6.669,4.128,7.003,6.69C56.301,1311.169,56.302,1311.479,56.266,1311.791z
			 M58.683,1309.473c-0.142,0.232-0.317,0.466-0.525,0.7c-1.161-5.73-11.407-9.867-19.426-9.508l-0.383,0.019
			c-4.102,0.185-8.959,0.4-13.428,1.198c-1.625,0.291-3.201,0.658-4.668,1.128c0.667-0.429,1.373-0.855,2.111-1.276
			c14.456-8.234,26.98-1.587,35.142,4.128C59.1,1306.978,59.484,1308.159,58.683,1309.473z"/>
	</g>
	<g>
		<g>
			<g>
				<linearGradient id="SVGID_73_" gradientUnits="userSpaceOnUse" x1="2.4883" y1="1161.3115" x2="69.8018" y2="1161.3115">
					<stop  offset="0.0245" style="stop-color:#ABCF3C"/>
					<stop  offset="1" style="stop-color:#246533"/>
				</linearGradient>
				<path fill="url(#SVGID_73_)" d="M15.578,1127.654h41.135c7.252,0,13.089,5.68,13.089,12.735v41.844
					c0,7.056-5.837,12.735-13.089,12.735H15.578c-7.251,0-13.089-5.68-13.089-12.735v-41.844
					C2.488,1133.334,8.327,1127.654,15.578,1127.654z"/>
				<linearGradient id="SVGID_74_" gradientUnits="userSpaceOnUse" x1="64.6055" y1="1189.0859" x2="6.17" y2="1131.9362">
					<stop  offset="0.0245" style="stop-color:#D3E7BC"/>
					<stop  offset="1" style="stop-color:#002206"/>
				</linearGradient>
				<path fill="url(#SVGID_74_)" d="M17.637,1131.268h37.018c6.525,0,11.779,5.061,11.779,11.346v37.275
					c0,6.285-5.253,11.346-11.779,11.346H17.637c-6.526,0-11.78-5.061-11.78-11.346v-37.275
					C5.857,1136.328,11.11,1131.268,17.637,1131.268z"/>
				
					<linearGradient id="SVGID_75_" gradientUnits="userSpaceOnUse" x1="-636.1909" y1="-1191.4482" x2="-525.8583" y2="-1321.0131" gradientTransform="matrix(0.3932 0 0 -0.3825 264.5781 680.7139)">
					<stop  offset="0.0245" style="stop-color:#ABCF3C"/>
					<stop  offset="1" style="stop-color:#246533"/>
				</linearGradient>
				<path fill="url(#SVGID_75_)" d="M18.634,1132.598h35.021c6.173,0,11.144,4.835,11.144,10.842v35.623
					c0,6.007-4.97,10.842-11.144,10.842H18.634c-6.172,0-11.143-4.835-11.143-10.842v-35.623
					C7.492,1137.433,12.462,1132.598,18.634,1132.598z"/>
				
					<linearGradient id="SVGID_76_" gradientUnits="userSpaceOnUse" x1="-711.981" y1="-3723.7686" x2="-601.652" y2="-3853.3291" gradientTransform="matrix(0.3617 0 0 -0.1603 272.2862 540.0293)">
					<stop  offset="0.0429" style="stop-color:#B3D898"/>
					<stop  offset="1" style="stop-color:#66BD5D"/>
				</linearGradient>
				<path opacity="0.8" fill="url(#SVGID_76_)" d="M20.035,1134.826h32.221c5.68,0,10.151,3.943,10.21,9.551l0.042,9.924
					c0,2.518-1.45,4.544-4.334,4.544H14.022c-3.389,0.14-4.24-2.026-4.24-4.544v-9.777
					C9.782,1139.08,14.355,1134.826,20.035,1134.826z"/>
			</g>
		</g>
		<g>
			<path fill="#FFFFFF" d="M45.012,1145.795c-1.07,0-2.067,0.527-2.671,1.414c-0.988,1.475-0.597,3.484,0.87,4.477
				c3.768,2.555,6.018,6.783,6.018,11.311c0,7.521-6.117,13.641-13.635,13.641c-7.525,0-13.646-6.119-13.646-13.641
				c0-4.525,2.25-8.754,6.021-11.311c1.467-0.996,1.852-3.004,0.861-4.477c-0.595-0.886-1.591-1.414-2.665-1.414
				c-0.643,0-1.266,0.188-1.811,0.549c-5.542,3.748-8.851,9.974-8.851,16.652c0,11.075,9.012,20.084,20.09,20.084
				c11.072,0,20.08-9.009,20.08-20.084c0-6.68-3.308-12.906-8.858-16.656C46.277,1145.982,45.654,1145.795,45.012,1145.795"/>
			<path fill="#FFFFFF" d="M35.593,1140.479c-1.826,0-3.301,1.473-3.301,3.297v16.707c0,1.814,1.475,3.283,3.301,3.283
				c1.82,0,3.29-1.469,3.29-3.283v-16.707C38.883,1141.951,37.413,1140.479,35.593,1140.479"/>
		</g>
	</g>
	<g>
		<g>
			<g>
				<linearGradient id="SVGID_77_" gradientUnits="userSpaceOnUse" x1="0" y1="1000.2178" x2="67.2529" y2="1000.2178">
					<stop  offset="0.0245" style="stop-color:#ABCF3C"/>
					<stop  offset="1" style="stop-color:#246533"/>
				</linearGradient>
				<path fill="url(#SVGID_77_)" d="M13.077,966.591h41.1c7.244,0,13.076,5.675,13.076,12.725v41.805
					c0,7.049-5.832,12.725-13.076,12.725h-41.1c-7.244,0-13.077-5.676-13.077-12.725v-41.805
					C0,972.266,5.833,966.591,13.077,966.591z"/>
				<linearGradient id="SVGID_78_" gradientUnits="userSpaceOnUse" x1="62.0625" y1="1027.9668" x2="3.6776" y2="970.8665">
					<stop  offset="0.0245" style="stop-color:#D3E7BC"/>
					<stop  offset="1" style="stop-color:#002206"/>
				</linearGradient>
				<path fill="url(#SVGID_78_)" d="M15.136,970.2h36.982c6.522,0,11.77,5.057,11.77,11.335v37.244
					c0,6.278-5.247,11.332-11.77,11.332H15.136c-6.523,0-11.771-5.054-11.771-11.332v-37.244
					C3.364,975.257,8.612,970.2,15.136,970.2z"/>
				
					<linearGradient id="SVGID_79_" gradientUnits="userSpaceOnUse" x1="-642.5474" y1="-770.3433" x2="-532.3126" y2="-899.7931" gradientTransform="matrix(0.3932 0 0 -0.3825 264.5781 680.7139)">
					<stop  offset="0.0245" style="stop-color:#ABCF3C"/>
					<stop  offset="1" style="stop-color:#246533"/>
				</linearGradient>
				<path fill="url(#SVGID_79_)" d="M16.133,971.527H51.12c6.169,0,11.135,4.833,11.135,10.834v35.59
					c0,6.003-4.966,10.833-11.135,10.833H16.133c-6.168,0-11.134-4.83-11.134-10.833v-35.59
					C4.999,976.36,9.965,971.527,16.133,971.527z"/>
				
					<linearGradient id="SVGID_80_" gradientUnits="userSpaceOnUse" x1="-721.1265" y1="-2718.9492" x2="-610.8904" y2="-2848.4006" gradientTransform="matrix(0.3617 0 0 -0.1603 272.2862 540.0293)">
					<stop  offset="0.0429" style="stop-color:#B3D898"/>
					<stop  offset="1" style="stop-color:#66BD5D"/>
				</linearGradient>
				<path opacity="0.8" fill="url(#SVGID_80_)" d="M16.724,973.756h32.193c5.673,0,10.141,3.938,10.199,9.543l0.043,9.915
					c0,2.515-1.45,4.54-4.33,4.54H10.716c-3.387,0.139-4.237-2.025-4.237-4.54v-9.771C6.479,978.006,11.049,973.756,16.724,973.756z
					"/>
			</g>
		</g>
		<g>
			<path fill="#FFFFFF" d="M17.938,983.238c1.033-0.005,2.332,0.389,2.432,2.37c0.004,0.084,0.008,0.175,0.008,0.255l-0.148,31.038
				c-0.03,2.605,1.235,4.853,3.476,6.167c2.35,1.383,5.323,1.449,7.566,0.166c2.149-1.229,3.333-3.443,3.333-6.23
				c0-7.626-0.027-28.123-0.149-31.361c-0.034-0.88,0.33-1.561,1.081-2.024c0.994-0.614,2.407-0.679,3.361-0.151
				c0.757,0.417,1.13,1.138,1.14,2.205c0.065,5.61,0.301,29.413,0.301,31.257c0,4.71,3.53,7.176,7.02,7.176
				c3.472,0,6.982-2.466,6.982-7.176c0-3.165-0.119-13.953-0.202-21.827c-0.054-4.896-0.097-8.761-0.097-9.453
				c0-3.014,0.681-3.014,1.229-3.014c1.308,0,4.118-0.012,6.985-0.027v-0.246c0-1.417-0.286-2.761-0.788-3.998
				c-2.582,0.014-5.01,0.022-6.197,0.022c-2.498,0-5.477,1.262-5.477,7.263c0,0.716,0.045,4.591,0.097,9.496
				c0.085,7.869,0.202,18.643,0.202,21.784c0,2.788-2.277,2.93-2.734,2.93c-1.279,0-2.773-0.769-2.773-2.93
				c0-1.88-0.229-25.304-0.298-31.304c-0.029-2.583-1.247-4.726-3.338-5.878c-2.281-1.257-5.355-1.155-7.64,0.255
				c-2.061,1.271-3.19,3.387-3.098,5.804c0.119,3.154,0.147,24.105,0.147,31.198c0,1.234-0.403,2.089-1.194,2.542
				c-0.919,0.522-2.277,0.47-3.308-0.137c-0.638-0.377-1.396-1.108-1.38-2.472l0.148-31.065c0-0.165-0.004-0.325-0.013-0.482
				c-0.229-4.431-3.479-6.398-6.634-6.398c-0.03,0-0.062,0-0.09,0c-3.558,0.041-7.302,2.551-7.415,6.673
				c-0.028,1.032-0.04,27.112-0.044,41.59c1.275,0.739,2.711,1.237,4.249,1.429c0.004-17.68,0.017-41.977,0.042-42.899
				C14.763,984.234,16.423,983.257,17.938,983.238z"/>
		</g>
	</g>
</g>
</svg>
