<?xml version="1.0" encoding="utf-8"?>
<!-- Generator: Adobe Illustrator 16.2.1, SVG Export Plug-In . SVG Version: 6.00 Build 0)  -->
<!DOCTYPE svg PUBLIC "-//W3C//DTD SVG 1.1//EN" "http://www.w3.org/Graphics/SVG/1.1/DTD/svg11.dtd">
<svg version="1.1" id="Layer_1" xmlns="http://www.w3.org/2000/svg" xmlns:xlink="http://www.w3.org/1999/xlink" x="0px" y="0px"
	 width="511px" height="1364.5px" viewBox="1 -0.5 511 1364.5" enable-background="new 1 -0.5 511 1364.5" xml:space="preserve">
<g id="Layer_2" display="none">
	<rect x="1" y="-0.5" display="inline" fill="#DBDBDB" width="511" height="512.5"/>
</g>
<g id="Layer_1_1_">
	<g id="info-6-icon">
		<g opacity="0.4">
			<path d="M256,87.002c91.74,0,166,74.241,166,165.998c0,91.739-74.245,165.998-166,165.998c-91.738,0-166-74.242-166-165.998
				C90,161.259,164.243,87.002,256,87.002 M256,47.002C142.229,47.002,50,139.228,50,253c0,113.77,92.229,205.998,206,205.998
				c113.77,0,206-92.229,206-205.998C462,139.228,369.77,47.002,256,47.002L256,47.002z M252.566,368.809
				c-28.21,9.912-51.466-1.455-46.801-28.547c4.667-27.099,31.436-85.109,35.255-96.08c3.816-10.97-3.502-13.977-11.346-9.513
				c-4.524,2.61-11.248,7.841-17.02,12.925c-1.601-3.223-3.852-6.906-5.542-10.433c9.419-9.439,25.164-22.094,43.803-26.681
				c22.271-5.497,59.492,3.29,43.494,45.858c-11.425,30.34-19.503,51.276-24.595,66.868c-5.088,15.599,0.955,18.868,9.862,12.791
				c6.96-4.751,14.372-11.214,19.808-16.226c2.515,4.086,3.317,5.389,5.806,10.084C295.857,339.523,271.182,362.15,252.566,368.809z
				 M311.016,181.127c-12.795,10.891-31.76,10.655-42.369-0.532c-10.606-11.181-8.838-29.076,3.955-39.969
				c12.793-10.89,31.764-10.654,42.369,0.525C325.577,152.337,323.809,170.231,311.016,181.127z"/>
		</g>
		<g>
			<path fill="#FFFFFF" d="M256,90.002c91.74,0,166,74.241,166,165.998c0,91.739-74.245,165.998-166,165.998
				c-91.738,0-166-74.242-166-165.998C90,164.259,164.243,90.002,256,90.002 M256,50.002C142.229,50.002,50,142.228,50,256
				c0,113.77,92.229,205.998,206,205.998c113.77,0,206-92.229,206-205.998C462,142.228,369.77,50.002,256,50.002L256,50.002z
				 M252.566,371.809c-28.21,9.912-51.466-1.455-46.801-28.547c4.667-27.099,31.436-85.109,35.255-96.08
				c3.816-10.97-3.502-13.977-11.346-9.513c-4.524,2.61-11.248,7.841-17.02,12.925c-1.601-3.223-3.852-6.906-5.542-10.433
				c9.419-9.439,25.164-22.094,43.803-26.681c22.271-5.497,59.492,3.29,43.494,45.858c-11.425,30.34-19.503,51.276-24.595,66.868
				c-5.088,15.599,0.955,18.868,9.862,12.791c6.96-4.751,14.372-11.214,19.808-16.226c2.515,4.086,3.317,5.389,5.806,10.084
				C295.857,342.523,271.182,365.15,252.566,371.809z M311.016,184.127c-12.795,10.891-31.76,10.655-42.369-0.532
				c-10.606-11.181-8.838-29.076,3.955-39.969c12.793-10.89,31.764-10.654,42.369,0.525
				C325.577,155.337,323.809,173.231,311.016,184.127z"/>
		</g>
	</g>
</g>
<g id="x-mark-4-icon">
	<g opacity="0.4">
		<path d="M462,1145c0,113.771-92.229,206-206,206s-206-92.229-206-206s92.229-206,206-206S462,1031.229,462,1145z M422,1145
			c0-91.755-74.258-166-166-166c-91.755,0-166,74.259-166,166c0,91.755,74.258,166,166,166C347.755,1311,422,1236.741,422,1145z
			 M325.329,1251.49l-67.327-67.324l-67.329,67.332l-36.164-36.186l67.314-67.322l-67.321-67.317l36.186-36.164l67.31,67.302
			l67.3-67.31l36.193,36.17l-67.312,67.315l67.32,67.31L325.329,1251.49z"/>
	</g>
	<g>
		<path fill="#FFFFFF" d="M462,1148c0,113.771-92.229,206-206,206s-206-92.229-206-206s92.229-206,206-206S462,1034.229,462,1148z
			 M422,1148c0-91.755-74.258-166-166-166c-91.755,0-166,74.259-166,166c0,91.755,74.258,166,166,166
			C347.755,1314,422,1239.741,422,1148z M325.329,1254.49l-67.327-67.324l-67.329,67.332l-36.164-36.186l67.314-67.322
			l-67.321-67.317l36.186-36.164l67.31,67.302l67.3-67.31l36.193,36.17l-67.312,67.315l67.32,67.31L325.329,1254.49z"/>
	</g>
</g>
</svg>
