<?xml version="1.0" encoding="utf-8"?>
<!-- Generator: Adobe Illustrator 16.2.1, SVG Export Plug-In . SVG Version: 6.00 Build 0)  -->
<!DOCTYPE svg PUBLIC "-//W3C//DTD SVG 1.1//EN" "http://www.w3.org/Graphics/SVG/1.1/DTD/svg11.dtd">
<svg version="1.1" id="Layer_1" xmlns="http://www.w3.org/2000/svg" xmlns:xlink="http://www.w3.org/1999/xlink" x="0px" y="0px"
	 width="648.882px" height="196.097px" viewBox="96.504 199.451 648.882 196.097"
	 enable-background="new 96.504 199.451 648.882 196.097" xml:space="preserve">
<g id="logo" opacity="0.4">
</g>
<g id="Layer_2">
	<g>
		<g opacity="0.4">
			<path d="M377.597,288.17c-96.5,2.399-188.145,12.39-267.858,29.037v5.819c77.802-16.254,169.3-26.619,267.858-29.085V288.17z"/>
			<path d="M464.291,288.17c96.494,2.399,188.143,12.39,267.857,29.037v5.819c-77.805-16.254-169.299-26.619-267.857-29.085V288.17
				L464.291,288.17z"/>
			<rect x="390.75" y="277.535" width="60.455" height="6.146"/>
			<path d="M411.689,265.29c0,3.208-2.613,5.826-5.837,5.826c-3.21,0-5.809-2.618-5.809-5.826c0-3.206,2.599-5.797,5.809-5.797
				C409.076,259.493,411.689,262.084,411.689,265.29z"/>
			<path d="M441.916,265.29c0,3.208-2.602,5.826-5.818,5.826c-3.213,0-5.811-2.618-5.811-5.826c0-3.206,2.598-5.797,5.811-5.797
				C439.314,259.493,441.916,262.084,441.916,265.29z"/>
			<path d="M441.916,265.29c0,3.208-2.602,5.826-5.818,5.826c-3.213,0-5.811-2.618-5.811-5.826c0-3.206,2.598-5.797,5.811-5.797
				C439.314,259.493,441.916,262.084,441.916,265.29z"/>
			<path d="M457.031,265.29c0,3.208-2.602,5.826-5.828,5.826c-3.219,0-5.811-2.618-5.811-5.826c0-3.206,2.592-5.797,5.811-5.797
				C454.429,259.493,457.031,262.084,457.031,265.29z"/>
			<path d="M384.926,265.29c0,3.208,2.606,5.826,5.824,5.826s5.809-2.618,5.809-5.826c0-3.206-2.591-5.797-5.809-5.797
				S384.926,262.084,384.926,265.29z"/>
			<path d="M428.519,208.714v-3.851h-5.633v-5.412h-3.833v5.412h-5.631v3.851h5.631v5.857c-3.138,0.845-5.458,3.678-5.458,7.083
				c0,4.051,3.287,7.343,7.338,7.343c4.058,0,7.33-3.292,7.33-7.343c0-3.367-2.279-6.183-5.379-7.05v-5.891L428.519,208.714
				L428.519,208.714z"/>
			<rect x="390.75" y="287.563" width="60.455" height="6.149"/>
			<path d="M426.791,265.29c0,3.208-2.594,5.826-5.817,5.826c-3.218,0-5.81-2.618-5.81-5.826c0-3.206,2.592-5.797,5.81-5.797
				C424.197,259.493,426.791,262.084,426.791,265.29z"/>
			<path d="M466.164,237.867c-4.084-3.895-11.186-3.895-18.574-1.756c-0.154-0.956-0.398-1.867-0.795-2.678
				c-1.006-2.033-3.295-4.552-8.357-4.998c-5.576-0.482-12.896,2.584-17.463,6.828c-4.552-4.244-11.874-7.31-17.446-6.828
				c-5.077,0.445-7.355,2.965-8.381,4.998c-0.386,0.812-0.632,1.722-0.771,2.678c-7.389-2.139-14.489-2.139-18.572,1.756
				c-1.878,1.78-2.837,4.01-2.806,6.452c0.067,5.2,4.658,10.552,10.455,16.075c0.312-0.468,0.674-0.906,1.086-1.311
				c1.37-1.368,3.114-2.228,5.01-2.48c-4.827-4.511-9.579-9.435-9.627-12.368c0-0.441,0.108-0.831,0.646-1.366
				c2.228-2.122,8.141-1.628,14.555,0.754c1.147,3.875,3.331,8.456,6.646,13.897c1.253-0.653,2.643-0.997,4.098-0.997
				c1.411,0,2.746,0.333,3.926,0.927c-0.783-1.325-1.312-2.197-1.312-2.197c-6.277-10.009-7.384-14.952-7.384-17.194
				c0-0.882,0.161-1.354,0.261-1.544c0.335-0.655,1.271-1.041,2.77-1.18c4.228-0.376,10.877,2.934,13.389,6.445v15.446
				c1.077-0.462,2.25-0.703,3.458-0.703c1.219,0,2.387,0.241,3.469,0.703V241.78c2.512-3.511,9.164-6.821,13.395-6.445
				c1.502,0.14,2.422,0.525,2.76,1.18c0.092,0.19,0.27,0.662,0.27,1.544c0,2.242-1.107,7.185-7.395,17.194
				c0,0-0.516,0.872-1.305,2.197c1.184-0.595,2.52-0.927,3.93-0.927c1.445,0,2.848,0.344,4.096,0.997
				c3.309-5.441,5.496-10.022,6.646-13.897c6.402-2.382,12.316-2.876,14.553-0.754c0.535,0.535,0.65,0.925,0.65,1.366
				c-0.059,2.933-4.809,7.856-9.629,12.368c1.893,0.253,3.641,1.112,5.004,2.48c0.414,0.405,0.781,0.843,1.088,1.311
				c5.801-5.523,10.387-10.875,10.453-16.075C468.992,241.877,468.033,239.646,466.164,237.867z"/>
			<path d="M340.171,360.497h23.479v6.311h-14.605v6.864h13.786v6.296h-13.786v7.543h15.125v6.297h-23.999V360.497z"/>
			<path d="M413.712,385.594c2.295,1.248,5.494,2.197,9.168,2.197c2.811,0,5.484-0.578,5.484-3.242
				c0-6.209-15.742-2.293-15.742-14.411c0-8.012,7.82-10.214,14.503-10.214c3.199,0,6.344,0.478,8.588,1.248l-0.572,6.864
				c-2.289-1.045-4.865-1.527-7.395-1.527c-2.246,0-5.971,0.193-5.971,3.104c0,5.391,15.75,1.763,15.75,13.785
				c0,8.643-7.25,10.974-14.646,10.974c-3.102,0-6.97-0.468-9.93-1.427L413.712,385.594z"/>
			<path d="M446.597,385.594c2.293,1.248,5.482,2.197,9.158,2.197c2.816,0,5.486-0.578,5.486-3.242
				c0-6.209-15.748-2.293-15.748-14.411c0-8.012,7.828-10.214,14.504-10.214c3.199,0,6.35,0.478,8.594,1.248l-0.578,6.864
				c-2.281-1.045-4.863-1.527-7.389-1.527c-2.244,0-5.969,0.193-5.969,3.104c0,5.391,15.748,1.763,15.748,13.785
				c0,8.643-7.256,10.974-14.648,10.974c-3.104,0-6.961-0.468-9.92-1.427L446.597,385.594z"/>
			<path d="M485.345,367.082h-8.213v-6.585h25.289v6.585h-8.203v26.72h-8.873V367.082z"/>
			<path d="M519.55,381.254l-12.307-20.757h10.211l6.537,13.361l6.439-13.361h10.213l-12.217,20.757v12.548h-8.877V381.254
				L519.55,381.254z"/>
			<path d="M547.513,360.497h15.838c5.926,0,10.742,2.674,10.742,8.4c0,4.438-2.104,7.39-6.395,8.396v0.098
				c2.859,0.766,3.053,3.289,4.719,7.346l3.248,9.064h-9.258l-1.908-6.011c-1.812-5.724-2.957-7.158-6.252-7.158h-1.859v13.169
				h-8.873v-33.305H547.513z M556.386,374.337h2.342c2.865,0,6.492-0.097,6.492-3.868c0-3.103-3.102-3.671-6.492-3.671h-2.342
				V374.337z"/>
			<path d="M584.152,360.497h23.482v6.301h-14.602v6.869h13.787v6.301h-13.787v7.534h15.125v6.3H584.15v-33.305H584.152z"/>
			<path d="M617.509,360.497h8.873v26.716h13.742v6.589h-22.615V360.497L617.509,360.497z"/>
			<path d="M648.38,385.594c2.293,1.248,5.492,2.197,9.162,2.197c2.818,0,5.492-0.578,5.492-3.242
				c0-6.209-15.746-2.293-15.746-14.411c0-8.012,7.816-10.214,14.504-10.214c3.193,0,6.348,0.478,8.582,1.248l-0.568,6.864
				c-2.285-1.045-4.863-1.527-7.396-1.527c-2.244,0-5.959,0.193-5.959,3.104c0,5.391,15.746,1.763,15.746,13.785
				c0,8.643-7.254,10.974-14.652,10.974c-3.098,0-6.965-0.468-9.924-1.427L648.38,385.594z"/>
			<path d="M681.406,360.497h23.469v6.301h-14.596v6.869h13.787v6.301h-13.787v7.534h15.125v6.3h-23.998V360.497z"/>
			<path d="M714.75,360.497h11.311l11.264,22.621h0.096l-0.139-22.621h8.105v33.305h-11.021l-11.643-22.755h-0.092l0.283,22.755
				h-8.164V360.497L714.75,360.497z"/>
			<path d="M373.524,360.502h12.119c11.591,0,19.701,3.628,19.701,16.513c0,12.447-8.353,16.793-19.701,16.793h-12.119V360.502z
				 M382.397,387.224h3.43c6.638,0,10.355-3.437,10.355-10.063c0-6.638-3.862-10.072-10.355-10.072h-3.43V387.224z"/>
			<path d="M193.985,360.497h8.873v13.604h0.096l10.019-13.604h10.684l-12.302,15.511l13.266,17.8h-11.31l-10.356-15.125h-0.096
				v15.125h-8.873L193.985,360.497L193.985,360.497z"/>
			<path d="M265.219,360.497h15.838c5.915,0,10.742,2.674,10.742,8.4c0,4.438-2.11,7.398-6.397,8.4v0.098
				c2.861,0.75,3.054,3.289,4.721,7.351l3.247,9.062h-9.258l-1.908-6.008c-1.811-5.73-2.958-7.162-6.252-7.162h-1.859v13.17h-8.873
				v-33.311H265.219z M274.092,374.337h2.341c2.861,0,6.484-0.092,6.484-3.863c0-3.098-3.102-3.67-6.484-3.67h-2.341V374.337z"/>
			<path d="M301.857,360.497h8.882v12.74h10.491v-12.74h8.872v33.311h-8.872v-14.264h-10.491v14.264h-8.882V360.497z"/>
			<path d="M231.77,360.497h23.478v6.307h-14.605v6.863h13.796v6.301h-13.796v7.543h15.135v6.297H231.77V360.497z"/>
			<path d="M156.62,360.497h8.873v13.604h0.096l10.02-13.604h10.684l-12.303,15.511l13.266,17.8h-11.311l-10.356-15.125h-0.096
				v15.125h-8.873V360.497L156.62,360.497z"/>
			<path d="M137.583,360.502h8.883v33.306h-8.883V360.502z"/>
			<path d="M96.504,362.709c0,8.892,6.71,10.915,12.63,12.707c4.432,1.339,8.618,2.601,8.618,6.733c0,3.488-2.779,5.256-8.271,5.256
				c-4.147,0-8.17-0.997-11.619-2.635c-0.164,1.612-0.718,6.959-0.838,8.067c3.555,1.05,8.228,1.71,12.457,1.71
				c8.623,0,18.897-2.418,18.897-13.939c0-9.057-6.96-11.012-13.107-12.741c-4.181-1.181-8.141-2.288-8.141-5.862
				c0-5.048,6.71-5.048,8.917-5.048c3.285,0,6.402,0.665,9.205,1.763c0.13-1.531,0.525-6.334,0.617-7.438
				c-2.948-0.915-6.831-1.483-10.66-1.483C109.587,349.799,96.504,351.062,96.504,362.709z"/>
		</g>
		<g>
			<g>
				<g>
					<g>
						<path fill="#FFFFFF" d="M377.597,289.17c-96.5,2.399-188.145,12.39-267.858,29.037v5.819
							c77.802-16.254,169.3-26.619,267.858-29.085V289.17z"/>
						<path fill="#FFFFFF" d="M464.291,289.17c96.494,2.399,188.143,12.39,267.857,29.037v5.819
							c-77.805-16.254-169.299-26.619-267.857-29.085V289.17L464.291,289.17z"/>
						<g>
							<rect x="390.75" y="278.535" fill="#FFFFFF" width="60.455" height="6.146"/>
							<path fill="#FFFFFF" d="M411.689,266.29c0,3.208-2.613,5.826-5.837,5.826c-3.21,0-5.809-2.618-5.809-5.826
								c0-3.206,2.599-5.797,5.809-5.797C409.076,260.493,411.689,263.084,411.689,266.29z"/>
							<path fill="#FFFFFF" d="M441.916,266.29c0,3.208-2.602,5.826-5.818,5.826c-3.213,0-5.811-2.618-5.811-5.826
								c0-3.206,2.598-5.797,5.811-5.797C439.314,260.493,441.916,263.084,441.916,266.29z"/>
							<path fill="#FFFFFF" d="M441.916,266.29c0,3.208-2.602,5.826-5.818,5.826c-3.213,0-5.811-2.618-5.811-5.826
								c0-3.206,2.598-5.797,5.811-5.797C439.314,260.493,441.916,263.084,441.916,266.29z"/>
							<path fill="#FFFFFF" d="M457.031,266.29c0,3.208-2.602,5.826-5.828,5.826c-3.219,0-5.811-2.618-5.811-5.826
								c0-3.206,2.592-5.797,5.811-5.797C454.429,260.493,457.031,263.084,457.031,266.29z"/>
							<path fill="#FFFFFF" d="M384.926,266.29c0,3.208,2.606,5.826,5.824,5.826s5.809-2.618,5.809-5.826
								c0-3.206-2.591-5.797-5.809-5.797S384.926,263.084,384.926,266.29z"/>
							<path fill="#FFFFFF" d="M428.519,209.714v-3.851h-5.633v-5.412h-3.833v5.412h-5.631v3.851h5.631v5.857
								c-3.138,0.845-5.458,3.678-5.458,7.083c0,4.051,3.287,7.343,7.338,7.343c4.058,0,7.33-3.292,7.33-7.343
								c0-3.367-2.279-6.183-5.379-7.05v-5.891L428.519,209.714L428.519,209.714z"/>
							<rect x="390.75" y="288.563" fill="#FFFFFF" width="60.455" height="6.149"/>
							<path fill="#FFFFFF" d="M426.791,266.29c0,3.208-2.594,5.826-5.817,5.826c-3.218,0-5.81-2.618-5.81-5.826
								c0-3.206,2.592-5.797,5.81-5.797C424.197,260.493,426.791,263.084,426.791,266.29z"/>
							<path fill="#FFFFFF" d="M466.164,238.867c-4.084-3.895-11.186-3.895-18.574-1.756c-0.154-0.956-0.398-1.867-0.795-2.678
								c-1.006-2.033-3.295-4.552-8.357-4.998c-5.576-0.482-12.896,2.584-17.463,6.828c-4.552-4.244-11.874-7.31-17.446-6.828
								c-5.077,0.445-7.355,2.965-8.381,4.998c-0.386,0.812-0.632,1.722-0.771,2.678c-7.389-2.139-14.489-2.139-18.572,1.756
								c-1.878,1.78-2.837,4.01-2.806,6.452c0.067,5.2,4.658,10.552,10.455,16.075c0.312-0.468,0.674-0.906,1.086-1.311
								c1.37-1.368,3.114-2.228,5.01-2.48c-4.827-4.511-9.579-9.435-9.627-12.368c0-0.441,0.108-0.831,0.646-1.366
								c2.228-2.122,8.141-1.628,14.555,0.754c1.147,3.875,3.331,8.456,6.646,13.897c1.253-0.653,2.643-0.997,4.098-0.997
								c1.411,0,2.746,0.333,3.926,0.927c-0.783-1.325-1.312-2.197-1.312-2.197c-6.277-10.009-7.384-14.952-7.384-17.194
								c0-0.882,0.161-1.354,0.261-1.544c0.335-0.655,1.271-1.041,2.77-1.18c4.228-0.376,10.877,2.934,13.389,6.445v15.446
								c1.077-0.462,2.25-0.703,3.458-0.703c1.219,0,2.387,0.241,3.469,0.703V242.78c2.512-3.511,9.164-6.821,13.395-6.445
								c1.502,0.14,2.422,0.525,2.76,1.18c0.092,0.19,0.27,0.662,0.27,1.544c0,2.242-1.107,7.185-7.395,17.194
								c0,0-0.516,0.872-1.305,2.197c1.184-0.595,2.52-0.927,3.93-0.927c1.445,0,2.848,0.344,4.096,0.997
								c3.309-5.441,5.496-10.022,6.646-13.897c6.402-2.382,12.316-2.876,14.553-0.754c0.535,0.535,0.65,0.925,0.65,1.366
								c-0.059,2.933-4.809,7.856-9.629,12.368c1.893,0.253,3.641,1.112,5.004,2.48c0.414,0.405,0.781,0.843,1.088,1.311
								c5.801-5.523,10.387-10.875,10.453-16.075C468.992,242.877,468.033,240.646,466.164,238.867z"/>
						</g>
					</g>
				</g>
				<g>
					<path fill="#FFFFFF" d="M340.171,361.497h23.479v6.311h-14.605v6.864h13.786v6.296h-13.786v7.543h15.125v6.297h-23.999V361.497
						z"/>
					<path fill="#FFFFFF" d="M413.712,386.594c2.295,1.248,5.494,2.197,9.168,2.197c2.811,0,5.484-0.578,5.484-3.242
						c0-6.209-15.742-2.293-15.742-14.411c0-8.012,7.82-10.214,14.503-10.214c3.199,0,6.344,0.478,8.588,1.248l-0.572,6.864
						c-2.289-1.045-4.865-1.527-7.395-1.527c-2.246,0-5.971,0.193-5.971,3.104c0,5.391,15.75,1.763,15.75,13.785
						c0,8.643-7.25,10.974-14.646,10.974c-3.102,0-6.97-0.468-9.93-1.427L413.712,386.594z"/>
					<path fill="#FFFFFF" d="M446.597,386.594c2.293,1.248,5.482,2.197,9.158,2.197c2.816,0,5.486-0.578,5.486-3.242
						c0-6.209-15.748-2.293-15.748-14.411c0-8.012,7.828-10.214,14.504-10.214c3.199,0,6.35,0.478,8.594,1.248l-0.578,6.864
						c-2.281-1.045-4.863-1.527-7.389-1.527c-2.244,0-5.969,0.193-5.969,3.104c0,5.391,15.748,1.763,15.748,13.785
						c0,8.643-7.256,10.974-14.648,10.974c-3.104,0-6.961-0.468-9.92-1.427L446.597,386.594z"/>
					<path fill="#FFFFFF" d="M485.345,368.082h-8.213v-6.585h25.289v6.585h-8.203v26.72h-8.873V368.082z"/>
					<path fill="#FFFFFF" d="M519.55,382.254l-12.307-20.757h10.211l6.537,13.361l6.439-13.361h10.213l-12.217,20.757v12.548h-8.877
						V382.254L519.55,382.254z"/>
					<path fill="#FFFFFF" d="M547.513,361.497h15.838c5.926,0,10.742,2.674,10.742,8.4c0,4.438-2.104,7.39-6.395,8.396v0.098
						c2.859,0.766,3.053,3.289,4.719,7.346l3.248,9.064h-9.258l-1.908-6.011c-1.812-5.724-2.957-7.158-6.252-7.158h-1.859v13.169
						h-8.873v-33.305H547.513z M556.386,375.337h2.342c2.865,0,6.492-0.097,6.492-3.868c0-3.103-3.102-3.671-6.492-3.671h-2.342
						V375.337z"/>
					<path fill="#FFFFFF" d="M584.152,361.497h23.482v6.301h-14.602v6.869h13.787v6.301h-13.787v7.534h15.125v6.3H584.15v-33.305
						H584.152z"/>
					<path fill="#FFFFFF" d="M617.509,361.497h8.873v26.716h13.742v6.589h-22.615V361.497L617.509,361.497z"/>
					<path fill="#FFFFFF" d="M648.38,386.594c2.293,1.248,5.492,2.197,9.162,2.197c2.818,0,5.492-0.578,5.492-3.242
						c0-6.209-15.746-2.293-15.746-14.411c0-8.012,7.816-10.214,14.504-10.214c3.193,0,6.348,0.478,8.582,1.248l-0.568,6.864
						c-2.285-1.045-4.863-1.527-7.396-1.527c-2.244,0-5.959,0.193-5.959,3.104c0,5.391,15.746,1.763,15.746,13.785
						c0,8.643-7.254,10.974-14.652,10.974c-3.098,0-6.965-0.468-9.924-1.427L648.38,386.594z"/>
					<path fill="#FFFFFF" d="M681.406,361.497h23.469v6.301h-14.596v6.869h13.787v6.301h-13.787v7.534h15.125v6.3h-23.998V361.497z"
						/>
					<path fill="#FFFFFF" d="M714.75,361.497h11.311l11.264,22.621h0.096l-0.139-22.621h8.105v33.305h-11.021l-11.643-22.755h-0.092
						l0.283,22.755h-8.164V361.497L714.75,361.497z"/>
					<path fill="#FFFFFF" d="M373.524,361.502h12.119c11.591,0,19.701,3.628,19.701,16.513c0,12.447-8.353,16.793-19.701,16.793
						h-12.119V361.502z M382.397,388.224h3.43c6.638,0,10.355-3.437,10.355-10.063c0-6.638-3.862-10.072-10.355-10.072h-3.43
						V388.224z"/>
					<path fill="#FFFFFF" d="M193.985,361.497h8.873v13.604h0.096l10.019-13.604h10.684l-12.302,15.511l13.266,17.8h-11.31
						l-10.356-15.125h-0.096v15.125h-8.873L193.985,361.497L193.985,361.497z"/>
					<path fill="#FFFFFF" d="M265.219,361.497h15.838c5.915,0,10.742,2.674,10.742,8.4c0,4.438-2.11,7.398-6.397,8.4v0.098
						c2.861,0.75,3.054,3.289,4.721,7.351l3.247,9.062h-9.258l-1.908-6.008c-1.811-5.73-2.958-7.162-6.252-7.162h-1.859v13.17
						h-8.873v-33.311H265.219z M274.092,375.337h2.341c2.861,0,6.484-0.092,6.484-3.863c0-3.098-3.102-3.67-6.484-3.67h-2.341
						V375.337z"/>
					<path fill="#FFFFFF" d="M301.857,361.497h8.882v12.74h10.491v-12.74h8.872v33.311h-8.872v-14.264h-10.491v14.264h-8.882
						V361.497z"/>
					<path fill="#FFFFFF" d="M231.77,361.497h23.478v6.307h-14.605v6.863h13.796v6.301h-13.796v7.543h15.135v6.297H231.77V361.497z"
						/>
					<path fill="#FFFFFF" d="M156.62,361.497h8.873v13.604h0.096l10.02-13.604h10.684l-12.303,15.511l13.266,17.8h-11.311
						l-10.356-15.125h-0.096v15.125h-8.873V361.497L156.62,361.497z"/>
					<path fill="#FFFFFF" d="M137.583,361.502h8.883v33.306h-8.883V361.502z"/>
					<path fill="#FFFFFF" d="M96.504,363.709c0,8.892,6.71,10.915,12.63,12.707c4.432,1.339,8.618,2.601,8.618,6.733
						c0,3.488-2.779,5.256-8.271,5.256c-4.147,0-8.17-0.997-11.619-2.635c-0.164,1.612-0.718,6.959-0.838,8.067
						c3.555,1.05,8.228,1.71,12.457,1.71c8.623,0,18.897-2.418,18.897-13.939c0-9.057-6.96-11.012-13.107-12.741
						c-4.181-1.181-8.141-2.288-8.141-5.862c0-5.048,6.71-5.048,8.917-5.048c3.285,0,6.402,0.665,9.205,1.763
						c0.13-1.531,0.525-6.334,0.617-7.438c-2.948-0.915-6.831-1.483-10.66-1.483C109.587,350.799,96.504,352.062,96.504,363.709z"/>
				</g>
			</g>
		</g>
	</g>
</g>
</svg>
